<svg width="10" height="14" viewBox="0 0 10 14" fill="none" xmlns="http://www.w3.org/2000/svg">
<path d="M1.15162 6.33307H8.84962C9.42429 6.33307 9.72962 5.65307 9.34762 5.22307L5.49896 0.893071C5.43653 0.822607 5.35986 0.766194 5.27401 0.727558C5.18816 0.688923 5.0951 0.668945 5.00096 0.668945C4.90682 0.668945 4.81375 0.688923 4.7279 0.727558C4.64205 0.766194 4.56538 0.822607 4.50295 0.893071L0.652955 5.22307C0.270955 5.65307 0.576288 6.33307 1.15162 6.33307ZM4.50229 13.1057C4.56472 13.1762 4.64139 13.2326 4.72723 13.2713C4.81308 13.3099 4.90615 13.3299 5.00029 13.3299C5.09443 13.3299 5.1875 13.3099 5.27334 13.2713C5.35919 13.2326 5.43586 13.1762 5.49829 13.1057L9.34696 8.77574C9.72962 8.3464 9.42429 7.6664 8.84896 7.6664H1.15162C0.576955 7.6664 0.271622 8.3464 0.653622 8.7764L4.50229 13.1057Z" fill="#41A0FC"/>
</svg>
