<svg width="42" height="34" viewBox="0 0 42 34" fill="none" xmlns="http://www.w3.org/2000/svg">
<path d="M40.5 0.546877H29.775C27.4734 0.546877 25.2234 1.20781 23.2875 2.45469L21 3.92188L18.7125 2.45469C16.7785 1.20805 14.526 0.545646 12.225 0.546877H1.5C0.670312 0.546877 0 1.21719 0 2.04688V28.6719C0 29.5016 0.670312 30.1719 1.5 30.1719H12.225C14.5266 30.1719 16.7766 30.8328 18.7125 32.0797L20.7938 33.4203C20.8547 33.4578 20.925 33.4813 20.9953 33.4813C21.0656 33.4813 21.1359 33.4625 21.1969 33.4203L23.2781 32.0797C25.2187 30.8328 27.4734 30.1719 29.775 30.1719H40.5C41.3297 30.1719 42 29.5016 42 28.6719V2.04688C42 1.21719 41.3297 0.546877 40.5 0.546877ZM12.225 26.7969H3.375V3.92188H12.225C13.8844 3.92188 15.4969 4.39531 16.8891 5.29063L19.1766 6.75781L19.5 6.96875V28.625C17.2687 27.425 14.775 26.7969 12.225 26.7969ZM38.625 26.7969H29.775C27.225 26.7969 24.7313 27.425 22.5 28.625V6.96875L22.8234 6.75781L25.1109 5.29063C26.5031 4.39531 28.1156 3.92188 29.775 3.92188H38.625V26.7969ZM15.6047 9.92188H6.89531C6.7125 9.92188 6.5625 10.0813 6.5625 10.2734V12.3828C6.5625 12.575 6.7125 12.7344 6.89531 12.7344H15.6C15.7828 12.7344 15.9328 12.575 15.9328 12.3828V10.2734C15.9375 10.0813 15.7875 9.92188 15.6047 9.92188ZM26.0625 10.2734V12.3828C26.0625 12.575 26.2125 12.7344 26.3953 12.7344H35.1C35.2828 12.7344 35.4328 12.575 35.4328 12.3828V10.2734C35.4328 10.0813 35.2828 9.92188 35.1 9.92188H26.3953C26.2125 9.92188 26.0625 10.0813 26.0625 10.2734ZM15.6047 16.4844H6.89531C6.7125 16.4844 6.5625 16.6438 6.5625 16.8359V18.9453C6.5625 19.1375 6.7125 19.2969 6.89531 19.2969H15.6C15.7828 19.2969 15.9328 19.1375 15.9328 18.9453V16.8359C15.9375 16.6438 15.7875 16.4844 15.6047 16.4844ZM35.1047 16.4844H26.3953C26.2125 16.4844 26.0625 16.6438 26.0625 16.8359V18.9453C26.0625 19.1375 26.2125 19.2969 26.3953 19.2969H35.1C35.2828 19.2969 35.4328 19.1375 35.4328 18.9453V16.8359C35.4375 16.6438 35.2875 16.4844 35.1047 16.4844Z" fill="#E0E0E0"/>
</svg>
