<svg width="36" height="40" viewBox="0 0 36 40" fill="none" xmlns="http://www.w3.org/2000/svg">
<path fill-rule="evenodd" clip-rule="evenodd" d="M36 40H6C2.68629 40 0 37.3137 0 34V6C0 2.68629 2.68629 0 6 0H36V32C34.8954 32 34 32.8954 34 34C34 35.1046 34.8954 36 36 36V40ZM30 34C30 33.2987 30.1203 32.6256 30.3414 32H6C4.89543 32 4 32.8954 4 34C4 35.1046 4.89543 36 6 36H30.3414C30.1203 35.3744 30 34.7013 30 34ZM6 4H32V28H6C5.29873 28 4.62556 28.1203 4 28.3414V6C4 4.89543 4.89543 4 6 4Z" fill="white"/>
</svg>
