<svg width="41" height="40" viewBox="0 0 41 40" fill="none" xmlns="http://www.w3.org/2000/svg">
<path fill-rule="evenodd" clip-rule="evenodd" d="M20.5 40C23.9491 40 27.274 39.124 30.219 37.4835L38.6894 38.1894L37.9835 29.719C39.624 26.774 40.5 23.4491 40.5 20C40.5 8.9543 31.5457 0 20.5 0C9.4543 0 0.5 8.9543 0.5 20C0.5 31.0457 9.4543 40 20.5 40ZM28.73 33.7242L29.2832 33.3917L34.3106 33.8106L33.8917 28.7832L34.2242 28.23C35.7061 25.7649 36.5 22.9431 36.5 20C36.5 11.1634 29.3366 4 20.5 4C11.6634 4 4.5 11.1634 4.5 20C4.5 28.8366 11.6634 36 20.5 36C23.4431 36 26.2649 35.2061 28.73 33.7242ZM20.5007 29.9967C21.6056 29.9967 22.5013 29.1013 22.5013 27.9967C22.5013 26.8921 21.6056 25.9967 20.5007 25.9967C19.3957 25.9967 18.5 26.8921 18.5 27.9967C18.5 29.1013 19.3957 29.9967 20.5007 29.9967ZM18.5 24H22.5V22C22.5 22.0049 22.5094 21.9945 22.5309 21.9709C22.5833 21.9131 22.7077 21.776 22.941 21.591C23.1413 21.432 23.2035 21.3908 23.7096 21.07C25.4321 19.978 26.5 18.0791 26.5 16C26.5 12.6863 23.8137 10 20.5 10C17.1863 10 14.5 12.6863 14.5 16H18.5C18.5 14.8954 19.3954 14 20.5 14C21.6046 14 22.5 14.8954 22.5 16C22.5 16.6946 22.1451 17.3257 21.5679 17.6916C20.9203 18.1022 20.8128 18.1734 20.455 18.4573C19.2655 19.401 18.5 20.5254 18.5 22V24Z" fill="white"/>
</svg>
