<svg width="42" height="52" viewBox="0 0 42 52" fill="none" xmlns="http://www.w3.org/2000/svg">
<g clip-path="url(#clip0)">
<path d="M36.4204 26.5201C36.4692 27.0586 36.5058 27.6093 36.5058 28.16C36.5058 36.8858 29.5465 43.9473 20.9512 43.9473C12.3558 43.9473 5.39652 36.8736 5.39652 28.16C5.39652 27.6093 5.42094 27.0586 5.48199 26.5201C5.29885 27.4747 5.20117 28.466 5.20117 29.4817C5.20117 38.2075 12.2581 45.269 20.9512 45.269C29.6564 45.269 36.7012 38.1953 36.7012 29.4817C36.689 28.466 36.5913 27.4747 36.4204 26.5201Z" fill="white"/>
<path d="M7.86258 30.6688C7.26432 25.3575 9.38874 22.1878 10.6951 21.5759C11.6475 21.1231 12.2823 22.2612 11.5254 22.7507C11.5254 22.7507 11.6719 21.7717 10.744 21.9553C9.81606 22.1388 9.92595 24.4151 11.8672 23.9623C13.8695 23.5095 13.8451 20.5479 12.9905 19.0059C12.9905 19.0059 12.7829 20.4133 11.5376 20.2297C11.5376 20.2297 12.4289 19.9972 12.6486 18.6999C12.8073 17.7943 12.6486 16.0197 12.0137 14.7837C12.0137 14.7837 12.2335 16.4236 10.4143 18.6632C9.42537 19.887 6.39746 22.9955 6.39746 27.7194C6.39746 36.4085 11.5376 40.2881 14.187 41.3895C11.8184 39.9209 8.55851 36.8246 7.86258 30.6688Z" fill="white"/>
<path d="M34.113 30.6688C34.7112 25.3575 32.5868 22.1878 31.2804 21.5759C30.3281 21.1231 29.6932 22.2612 30.4502 22.7507C30.4502 22.7507 30.3037 21.7717 31.2316 21.9553C32.1595 22.1388 32.0496 24.4151 30.1083 23.9623C28.106 23.5095 28.1304 20.5479 28.9851 19.0059C28.9851 19.0059 29.1926 20.4133 30.438 20.2297C30.438 20.2297 29.5467 19.9972 29.3269 18.6999C29.1682 17.7943 29.3269 16.0197 29.9618 14.7837C29.9618 14.7837 29.7421 16.4236 31.5612 18.6632C32.5502 19.887 35.5781 22.9955 35.5781 27.7194C35.5781 36.4085 30.438 40.2881 27.7886 41.3895C30.1694 39.9209 33.4293 36.8246 34.113 30.6688Z" fill="white"/>
<path d="M2.27103 32.4068L2.22219 31.9417L3.33324 31.8193C3.44312 31.8071 3.47975 31.7459 3.46754 31.6113L3.44312 31.3543C3.43091 31.2319 3.38208 31.2197 3.33324 31.2197C3.25998 31.2319 3.24778 31.2931 3.25998 31.4155V31.4644L2.97917 31.5011L2.96696 31.44C2.95475 31.3298 2.8815 31.2686 2.78382 31.2809L2.13673 31.3543L2.08789 30.8892L2.74719 30.8158C2.93033 30.7913 3.0158 30.926 3.06464 31.0239C3.06464 30.9627 3.08905 30.7913 3.29661 30.7669C3.5408 30.7301 3.71173 30.9137 3.73615 31.2197L3.78498 31.7092C3.82161 32.0519 3.63847 32.2599 3.38208 32.2844L2.27103 32.4068Z" fill="white"/>
<path d="M3.06459 34.169C2.8204 34.2179 2.61284 34.1078 2.53959 33.7896L2.34424 32.8962L2.66168 32.835L2.8204 33.5571C2.84482 33.6672 2.90587 33.7529 3.02796 33.7284L3.11342 33.7162C3.24773 33.6917 3.25994 33.606 3.23552 33.4836L3.16226 33.1287C3.10121 32.8472 3.24773 32.6514 3.46749 32.6025L3.52854 32.5902C3.74831 32.5413 3.94366 32.6637 4.0047 32.9451L4.20005 33.8875L3.88261 33.9487L3.72389 33.2144C3.69947 33.092 3.67505 33.0308 3.58959 33.0431H3.56517C3.4797 33.0553 3.4797 33.1287 3.51633 33.2511L3.58959 33.5815C3.66284 33.912 3.55296 34.0833 3.27214 34.1445L3.06459 34.169Z" fill="white"/>
<path d="M3.54067 36.066C3.33311 36.1271 3.1866 36.0415 3.12555 35.8457L3.0645 35.6376C3.04008 35.552 3.04008 35.503 3.08892 35.4173L3.25985 35.1236L2.94241 35.2338L2.7959 34.7932L3.04008 34.7075C3.08892 34.6953 3.11334 34.6586 3.10113 34.6219L3.05229 34.5117L3.35753 34.4138L3.41857 34.5851L3.87032 34.4383C3.95578 34.4138 3.99241 34.3526 3.95578 34.2669L3.94357 34.2302L4.24881 34.1323L4.34648 34.426C4.41974 34.6586 4.30985 34.7932 4.13892 34.8544L3.55288 35.0502L3.5895 35.1726C3.61392 35.2582 3.61392 35.3072 3.57729 35.3561L3.41857 35.6131L4.61509 35.2215L4.7616 35.6621L3.54067 36.066Z" fill="white"/>
<path d="M4.46873 37.8282C4.22455 37.9384 3.95594 37.8527 3.82164 37.5345L3.60187 37.0327C3.46757 36.7268 3.57745 36.4698 3.82164 36.3596L3.96815 36.2984C4.1635 36.2128 4.31001 36.2617 4.40769 36.482L4.54199 36.788L4.24897 36.9226L4.22455 36.8614C4.18792 36.7757 4.15129 36.7268 4.06583 36.7635L4.01699 36.788C3.90711 36.8369 3.91931 36.9348 3.96815 37.045L4.06583 37.2775C4.12687 37.4121 4.20013 37.4488 4.31001 37.3999L4.85943 37.1551C4.96931 37.1062 5.00594 37.0205 4.9449 36.8859L4.84722 36.6656C4.78618 36.5432 4.70071 36.4943 4.60304 36.531L4.39548 36.1026C4.63966 35.9925 4.92048 36.0782 5.05478 36.3841L5.27455 36.8859C5.42106 37.2041 5.29897 37.4488 5.06699 37.559L4.46873 37.8282Z" fill="white"/>
<path d="M3.35795 38.5013L3.13818 38.0852L3.30911 37.9996C3.38237 37.9628 3.419 37.9261 3.37016 37.816L3.33353 37.7426L3.61435 37.5957L3.77307 37.9017C3.88295 38.1219 3.82191 38.2566 3.65097 38.3545L3.35795 38.5013Z" fill="white"/>
<path d="M5.01834 39.7496L4.78637 39.3458L5.81195 38.7461C5.84858 38.7216 5.8852 38.6849 5.86079 38.636L5.84858 38.6115C5.82416 38.5748 5.78753 38.5625 5.7509 38.5625H5.70207L5.60439 38.3912L5.62881 38.3422C5.64102 38.3055 5.65323 38.2688 5.64102 38.2321L5.62881 38.2076C5.60439 38.1587 5.55555 38.1709 5.50672 38.1954L4.78637 38.6237L5.05497 38.6604L5.00613 38.5748L5.28695 38.4157L5.45788 38.7094C5.51893 38.8073 5.50672 38.8685 5.43346 38.9174L5.32358 38.9786C5.27474 39.0031 5.25032 39.0153 5.18927 39.0031L4.73753 38.9419C4.62765 38.9297 4.5666 38.9052 4.49334 38.8073L4.4323 38.6971C4.32241 38.5136 4.34683 38.3545 4.54218 38.2443L5.28695 37.816C5.4823 37.7059 5.71427 37.6936 5.873 37.9751L5.94625 38.0975C5.99509 38.1831 5.98288 38.2321 5.97067 38.2933L5.95846 38.33L5.99509 38.3422C6.05613 38.3545 6.10497 38.379 6.15381 38.4646L6.22707 38.587C6.38579 38.8562 6.26369 39.0521 6.08055 39.1744L5.01834 39.7496Z" fill="white"/>
<path d="M7.64325 40.3982C7.50895 40.4961 7.38686 40.4839 7.28918 40.4104C7.27697 40.5328 7.20372 40.643 7.10604 40.7164L6.44674 41.2059C6.27581 41.3283 6.10488 41.2916 5.98279 41.1203L5.83628 40.9244C5.7386 40.7898 5.75081 40.7042 5.82407 40.6063L6.10488 40.2391C6.1293 40.2024 6.14151 40.1779 6.11709 40.1534L6.09267 40.129C6.06825 40.1045 6.04383 40.0923 6.00721 40.1167L5.84848 40.2391C5.77523 40.3003 5.79965 40.3493 5.84848 40.4227L5.88511 40.4716L5.62872 40.6552L5.43337 40.386C5.29907 40.1902 5.31128 40.0433 5.49442 39.9209L5.76302 39.7251C5.93395 39.6027 6.11709 39.615 6.27581 39.823L6.43453 40.0433C6.55662 40.2146 6.52 40.3248 6.44674 40.4349L6.17814 40.7898C6.16593 40.8021 6.17814 40.8143 6.17814 40.8143C6.19034 40.8265 6.19035 40.8265 6.21476 40.8143L6.7886 40.3982C6.88627 40.3248 6.91069 40.2391 6.82523 40.1167L6.67872 39.9209C6.59325 39.8108 6.50779 39.7741 6.41011 39.8475L6.1293 39.4681C6.34907 39.309 6.64209 39.3335 6.83744 39.6027L7.11825 39.9943C7.20372 40.1167 7.30139 40.1045 7.36244 40.0555L7.64325 40.3982Z" fill="white"/>
<path d="M7.41119 42.7725L7.10596 42.4298L7.92398 41.6833C8.02165 41.5976 7.98503 41.4997 7.91177 41.414L7.8263 41.3161C7.75305 41.2305 7.65538 41.1938 7.5577 41.2794L7.24026 40.9368C7.44782 40.7532 7.72863 40.7532 7.96061 40.998L8.24142 41.3161C8.4734 41.5731 8.44898 41.8424 8.26584 42.0015L7.41119 42.7725Z" fill="white"/>
<path d="M9.7797 43.2375L9.14482 42.6623L9.36458 42.4298L9.99947 43.005L9.7797 43.2375ZM8.92505 44.1921L8.58319 43.8861L9.19365 43.213C9.20586 43.2008 9.21807 43.1885 9.20586 43.1763C9.19365 43.1641 9.18144 43.1763 9.15703 43.1763L8.54656 43.5312C8.40005 43.6169 8.29017 43.6169 8.15586 43.5067L8.03377 43.3966C7.86284 43.2497 7.86284 43.0784 8.00935 42.9193L8.54656 42.3196C8.60761 42.2462 8.61982 42.1972 8.54656 42.1361L8.49772 42.0993L8.71749 41.8668L8.96168 42.0871C9.13261 42.2462 9.10819 42.4053 8.9983 42.5277L8.38784 43.2008C8.36342 43.2253 8.36342 43.2253 8.37563 43.2375C8.38784 43.2497 8.40005 43.2497 8.41226 43.2375L8.97389 42.9071C9.10819 42.8214 9.26691 42.7847 9.43784 42.9438L9.52331 43.0172C9.66982 43.1518 9.70645 43.3354 9.55993 43.5067L8.92505 44.1921Z" fill="white"/>
<path d="M10.4758 45.3424L10.0973 45.0732L10.7566 44.1676C10.8299 44.0697 10.8055 44.0085 10.6956 43.9228L10.488 43.776C10.3903 43.7025 10.3415 43.727 10.3171 43.7637C10.2805 43.8249 10.3171 43.8739 10.4148 43.9473L10.4636 43.984L10.3049 44.2165L10.256 44.1798C10.1706 44.1186 10.0729 44.1186 10.0119 44.2043L9.63337 44.7305L9.25488 44.4613L9.64558 43.9228C9.75546 43.776 9.91418 43.8004 9.99965 43.8249C9.95081 43.776 9.84093 43.6536 9.96302 43.4822C10.0973 43.2742 10.3537 43.2742 10.5979 43.4578L11.0008 43.7515C11.2816 43.9595 11.306 44.2288 11.1595 44.4368L10.4758 45.3424Z" fill="white"/>
<path d="M12.3069 45.9421C12.1726 46.1624 11.965 46.2358 11.672 46.0645L10.8784 45.5994L11.0371 45.3179L11.672 45.6851C11.7697 45.7463 11.8796 45.7585 11.9406 45.6361L11.9773 45.5627C12.0383 45.4526 12.0017 45.3791 11.8796 45.3057L11.5743 45.1221C11.3302 44.9753 11.2813 44.7427 11.3912 44.5469L11.4156 44.498C11.5255 44.3022 11.7453 44.241 12.0017 44.3878L12.8319 44.8651L12.6732 45.1466L12.0261 44.7672C11.9162 44.706 11.8552 44.6816 11.8185 44.755L11.8063 44.7672C11.7697 44.8407 11.8185 44.8774 11.9162 44.9508L12.2092 45.1221C12.5023 45.2935 12.5511 45.4893 12.4168 45.734L12.3069 45.9421Z" fill="white"/>
<path d="M13.9676 46.7254C13.8577 46.9579 13.6501 47.0558 13.3449 46.9089L12.5146 46.5296L12.649 46.2358L13.3205 46.5418C13.4181 46.5907 13.528 46.5907 13.5769 46.4684L13.6135 46.3949C13.6623 46.2726 13.6135 46.2114 13.4914 46.1502L13.1617 46.0033C12.9053 45.8809 12.8321 45.6484 12.9176 45.4526L12.942 45.4036C13.0396 45.1956 13.2472 45.1222 13.5036 45.2323L14.3705 45.6239L14.2362 45.9176L13.5524 45.6117C13.4426 45.5627 13.3693 45.5383 13.3449 45.6239L13.3327 45.6362C13.296 45.7096 13.3449 45.7463 13.467 45.8075L13.7722 45.9421C14.0774 46.0767 14.1507 46.2726 14.0408 46.5296L13.9676 46.7254Z" fill="white"/>
<path d="M15.7869 47.4719C15.7137 47.6677 15.5549 47.7412 15.3596 47.6677L15.152 47.5943C15.0666 47.5698 15.0299 47.5331 14.9933 47.4475L14.859 47.1415L14.7491 47.4597L14.3096 47.3128L14.395 47.0681C14.4073 47.0191 14.395 46.9824 14.3584 46.9702L14.2485 46.9334L14.3462 46.6275L14.5171 46.6887L14.6759 46.2359C14.7003 46.1502 14.6759 46.089 14.5904 46.0645L14.5538 46.0523L14.6514 45.7463L14.9445 45.8442C15.1764 45.9177 15.2253 46.089 15.1642 46.2603L14.9689 46.8355L15.0788 46.8723C15.1642 46.8967 15.2009 46.9334 15.2253 46.9946L15.3596 47.3006L15.7625 46.1135L16.202 46.2603L15.7869 47.4719Z" fill="white"/>
<path d="M18.0089 47.9614C17.9601 48.194 17.8014 48.2674 17.606 48.2307L17.5084 48.2062C17.313 48.1695 17.2398 48.0471 17.252 47.888L17.313 47.0803C17.3252 47.0069 17.3496 46.86 17.3496 46.86H17.3374C17.3374 46.86 17.3008 47.0069 17.2886 47.0681L17.02 47.8391C16.9711 47.9859 16.8491 48.0594 16.6537 48.0226L16.556 47.9982C16.3607 47.9614 16.2508 47.8268 16.2996 47.5943L16.4706 46.8111C16.495 46.7254 16.4706 46.6642 16.3851 46.652L16.3241 46.6397L16.3851 46.3215L16.7025 46.395C16.9345 46.4439 16.9834 46.5908 16.9467 46.7621L16.7514 47.6677L17.2031 46.5051L17.6182 46.5908L17.5572 47.8391L17.8136 46.6397L18.2653 46.7376L18.0089 47.9614Z" fill="white"/>
<path d="M18.3875 46.1869C18.3631 46.3827 18.2165 46.4684 17.9968 46.4439L16.9224 46.2848L16.9712 45.9666L17.4718 46.0401L17.5084 45.8198L17.8381 45.8687L17.8014 46.089H17.8258C17.8869 46.1012 17.9235 46.0768 17.9357 46.0156L17.9602 45.881L18.4241 45.9544L18.3875 46.1869Z" fill="white"/>
<path d="M18.6193 45.8687L17.7769 45.7464L17.7891 45.6729C17.8013 45.575 17.7769 45.5383 17.6304 45.5138H17.6182L17.6548 45.2324L17.9234 45.2691C18.1065 45.2935 18.2164 45.3425 18.192 45.5016V45.5261L18.6682 45.5995L18.6193 45.8687Z" fill="white"/>
<path d="M20.1698 48.1817L20.0477 48.1695C20.011 48.1695 19.9744 48.194 19.9744 48.2429L19.95 48.4999L19.486 48.4632L19.5227 48.1205L19.2785 48.353C19.2052 48.4142 19.1564 48.4265 19.0709 48.4265L18.8511 48.402C18.6436 48.3775 18.5215 48.2551 18.5459 48.0471L18.6192 47.2271C18.6314 47.1292 18.607 47.0803 18.5093 47.0803H18.4482L18.4727 46.7621L18.7901 46.7866C19.0221 46.811 19.0953 46.9457 19.0831 47.1292L18.9977 48.0716L19.2418 47.839C19.2907 47.7901 19.3273 47.7779 19.425 47.7901L19.5471 47.8023L19.6325 46.86L20.0965 46.8967L20.011 47.839L20.1942 47.8513L20.1698 48.1817Z" fill="white"/>
<path d="M21.9647 46.7866C21.9647 47.0314 21.8548 47.1905 21.5617 47.1905L20.9757 47.2027C20.9146 47.2027 20.8658 47.215 20.8658 47.2639C20.8658 47.3129 20.9146 47.3251 20.9757 47.3251L21.4885 47.3129C21.8059 47.3129 21.9158 47.4597 21.928 47.7045V48.1206C21.928 48.3531 21.8059 48.5245 21.4885 48.5245H21.1588C20.878 48.5245 20.7681 48.4021 20.7681 48.194V48.1206C20.7681 48.0349 20.7315 48.0104 20.6583 48.0104H20.585V47.6923H20.9024C21.1344 47.6923 21.2321 47.7902 21.2321 47.9737V48.1206C21.2321 48.1818 21.2443 48.2185 21.3176 48.2063H21.3786C21.4519 48.2063 21.4641 48.1695 21.4641 48.1084V47.7657C21.4641 47.6311 21.3664 47.5943 21.2565 47.5943H20.8048C20.5728 47.5943 20.4019 47.472 20.4019 47.2639C20.4019 47.0436 20.5606 46.9212 20.7926 46.9212L21.342 46.909C21.4274 46.909 21.4885 46.8601 21.4885 46.7866H21.9647ZM21.9524 48.7447C21.9524 48.9773 21.8304 49.1119 21.5862 49.1119H21.4641C21.3908 49.1119 21.3664 49.0996 21.3298 49.0752L21.2687 49.0262L21.171 49.1241H20.9635L20.8658 49.0385L20.817 49.0874C20.7803 49.1241 20.7559 49.1241 20.6827 49.1241H20.4385V48.8059H20.5972C20.646 48.8059 20.6705 48.7937 20.7071 48.7692L20.7681 48.708H20.9635L21.0734 48.8059L21.1833 48.708H21.3786L21.5007 48.8182C21.5251 48.8182 21.5373 48.7325 21.5373 48.6468H21.9524V48.7447Z" fill="white"/>
<path d="M23.7718 48.3285L23.3078 48.3775L23.1858 47.276C23.1735 47.1414 23.0759 47.1169 22.966 47.1292L22.8317 47.1414C22.7218 47.1537 22.6363 47.2026 22.6485 47.3372L22.1846 47.3862C22.1602 47.1169 22.3189 46.8722 22.6485 46.8355L23.0637 46.7865C23.4055 46.7498 23.6131 46.9211 23.6375 47.1659L23.7718 48.3285Z" fill="white"/>
<path d="M25.8348 47.5699L25.725 47.5943C25.6883 47.6066 25.6639 47.631 25.6761 47.6922L25.7372 47.9492L25.2854 48.0471L25.2122 47.7167L25.0535 48.0104C25.0046 48.0961 24.9558 48.1206 24.8703 48.145L24.6628 48.194C24.4552 48.2429 24.3087 48.1573 24.2598 47.9492L24.0889 47.1538C24.0645 47.0681 24.0401 47.0191 23.9424 47.0436L23.8814 47.0558L23.8081 46.7377L24.1255 46.6642C24.3575 46.6153 24.4674 46.7254 24.504 46.8968L24.6994 47.8269L24.8581 47.5331C24.8947 47.4719 24.9314 47.4475 25.0168 47.423L25.1389 47.3985L24.9436 46.4807L25.3953 46.3828L25.5907 47.3006L25.7738 47.2639L25.8348 47.5699Z" fill="white"/>
<path d="M27.7518 47.2884L27.471 47.3863C27.1902 47.4842 27.0681 47.374 27.0071 47.1905L26.6042 45.9789L27.0437 45.832L27.41 46.9212C27.4466 47.0191 27.471 47.0314 27.5687 47.0069L27.6542 46.9824L27.7518 47.2884ZM26.9582 47.5576L26.6774 47.6555C26.3966 47.7534 26.2745 47.6433 26.2135 47.4597L25.8105 46.2481L26.2501 46.1013L26.6164 47.1905C26.653 47.2884 26.6774 47.3006 26.7751 47.2761L26.8605 47.2517L26.9582 47.5576Z" fill="white"/>
<path d="M29.4243 46.1869C29.5098 46.3827 29.4366 46.5418 29.2534 46.6275L29.0336 46.7254C28.8871 46.7866 28.7895 46.7744 28.7162 46.6765L28.411 46.3216C28.3866 46.2848 28.3621 46.2726 28.3255 46.2848L28.2889 46.2971C28.2523 46.3093 28.2523 46.3338 28.2645 46.3705L28.3499 46.5541C28.3866 46.6397 28.4476 46.6275 28.5331 46.5908L28.5941 46.5663L28.7284 46.86L28.4232 46.9947C28.2034 47.0926 28.0691 47.0436 27.9836 46.8356L27.8493 46.5418C27.7639 46.346 27.8127 46.1625 28.0447 46.0646L28.2889 45.9544C28.472 45.8687 28.5819 45.9177 28.6674 46.0278L28.9604 46.3583C28.9726 46.3705 28.9726 46.3705 28.9848 46.3583C28.997 46.346 28.997 46.346 28.9848 46.3216L28.6918 45.6729C28.643 45.5628 28.5575 45.5261 28.4232 45.5873L28.2034 45.6852C28.0813 45.7464 28.0325 45.832 28.0813 45.9299L27.654 46.1257C27.5441 45.881 27.6296 45.5995 27.9226 45.4526L28.4232 45.2201C28.7406 45.0733 28.9848 45.1834 29.0947 45.4159L29.4243 46.1869Z" fill="white"/>
<path d="M30.2429 45.0854L29.8155 45.3302C29.5836 45.4648 29.4126 45.4526 29.315 45.2567L29.1807 45.0242L29.5836 44.7917L29.6568 44.9263C29.7057 45.012 29.7423 45.012 29.8155 44.963L30.0842 44.8039L30.2429 45.0854ZM30.6092 45.734L30.1818 45.9788C29.9499 46.1134 29.7789 46.1012 29.6812 45.9054L29.5469 45.6728L29.9499 45.4403L30.0231 45.5749C30.0719 45.6606 30.1086 45.6606 30.1818 45.6117L30.4504 45.4526L30.6092 45.734Z" fill="white"/>
<path d="M32.2573 44.8162L31.8788 45.0732L31.2439 44.1431C31.1829 44.0452 31.1096 44.0452 30.9998 44.1187L30.7922 44.2655C30.6945 44.3267 30.6945 44.3879 30.7311 44.4246C30.7678 44.4858 30.841 44.4613 30.9387 44.4001L30.9875 44.3634L31.1463 44.5959L31.0974 44.6327C31.012 44.6939 30.9875 44.7795 31.0364 44.8652L31.4027 45.4037L31.0242 45.6607L30.6457 45.11C30.5358 44.9631 30.6213 44.8162 30.6823 44.7428C30.6213 44.7673 30.4625 44.8285 30.3405 44.6694C30.1939 44.4736 30.2794 44.241 30.5236 44.0697L30.9387 43.7882C31.2195 43.5924 31.4881 43.6536 31.6346 43.8739L32.2573 44.8162Z" fill="white"/>
<path d="M33.6732 43.6413L33.3191 43.935L32.611 43.0906C32.5255 42.9927 32.4278 43.0172 32.3424 43.0906L32.2447 43.1763C32.1592 43.2497 32.1104 43.3354 32.1959 43.4455L31.8418 43.7515C31.6709 43.5434 31.6709 43.2497 31.9273 43.0294L32.2447 42.7602C32.5133 42.5399 32.7697 42.5766 32.9284 42.7602L33.6732 43.6413Z" fill="white"/>
<path d="M34.6991 42.0137C34.8822 42.1973 34.8944 42.4176 34.6625 42.6623L34.0154 43.3232L33.7834 43.1029L34.2962 42.5767C34.3694 42.5032 34.4183 42.3931 34.3206 42.3074L34.2596 42.2462C34.1619 42.1483 34.0886 42.185 33.9909 42.2707L33.7468 42.5277C33.5514 42.7358 33.3072 42.7235 33.1485 42.5644L33.0997 42.5277C32.9409 42.3686 32.9287 42.1361 33.1363 41.9403L33.8078 41.2549L34.0398 41.4752L33.5148 42.0137C33.4293 42.0994 33.3927 42.1606 33.4537 42.2218L33.4659 42.234C33.527 42.2952 33.5758 42.2585 33.6613 42.1606L33.8933 41.9158C34.1252 41.6833 34.3328 41.671 34.5404 41.8669L34.6991 42.0137Z" fill="white"/>
<path d="M35.7244 41.463L35.5291 41.6955C35.3337 41.928 35.1872 41.9035 35.0407 41.7689L34.064 40.949L34.357 40.5941L35.2361 41.3406C35.3215 41.4018 35.3459 41.4018 35.407 41.3283L35.468 41.2549L35.7244 41.463Z" fill="white"/>
<path d="M35.8591 39.101L35.3585 39.8108L35.1021 39.6272L35.6027 38.9174L35.8591 39.101ZM36.9091 39.8475L36.6405 40.2269L35.8957 39.7007C35.8835 39.6884 35.8713 39.6762 35.8591 39.6884C35.8469 39.7007 35.8591 39.7129 35.8713 39.7251L36.2986 40.2881C36.3963 40.4227 36.4207 40.5329 36.3231 40.6797L36.2254 40.8143C36.0911 40.9979 35.9324 41.0224 35.7614 40.9L35.1021 40.435C35.0289 40.386 34.9678 40.3738 34.919 40.4594L34.8824 40.5084L34.626 40.3248L34.8091 40.0556C34.9434 39.8598 35.1021 39.872 35.2486 39.9699L35.9934 40.4961C36.0178 40.5084 36.03 40.5206 36.03 40.5084C36.0422 40.4961 36.0422 40.4839 36.03 40.4717L35.6393 39.9577C35.5417 39.8353 35.4928 39.6762 35.6149 39.4926L35.676 39.4069C35.7859 39.2479 35.969 39.1867 36.1521 39.309L36.9091 39.8475Z" fill="white"/>
<path d="M37.6171 37.9384C37.8002 38.0363 37.8368 38.2076 37.7392 38.3912L37.6293 38.5748C37.5804 38.6482 37.5438 38.6849 37.4583 38.7094L37.1287 38.7828L37.4217 38.9542L37.2019 39.358L36.97 39.2356C36.9211 39.2112 36.8845 39.2234 36.8723 39.2601L36.8112 39.358L36.5304 39.1989L36.6159 39.0398L36.2008 38.8073C36.1153 38.7583 36.0543 38.7706 36.0054 38.8563L35.981 38.893L35.7002 38.7339L35.8467 38.4646C35.9688 38.2443 36.1397 38.2443 36.2985 38.33L36.8357 38.6237L36.8967 38.5136C36.9455 38.4279 36.9822 38.4034 37.0432 38.3912L37.3607 38.3178L36.2618 37.7059L36.4816 37.302L37.6171 37.9384Z" fill="white"/>
<path d="M36.0172 37.0572C36.1881 37.1429 36.237 37.302 36.1393 37.4978L35.6631 38.4768L35.3701 38.33L35.5899 37.8772L35.3945 37.7793L35.541 37.4733L35.7364 37.5712L35.7486 37.5468C35.773 37.4856 35.7608 37.4488 35.712 37.4244L35.5899 37.3632L35.7974 36.9471L36.0172 37.0572Z" fill="white"/>
<path d="M38.2761 36.0659C38.5203 36.1761 38.6424 36.4208 38.5081 36.739L38.2883 37.2408C38.154 37.5467 37.8976 37.6446 37.6534 37.5467L37.5069 37.4855C37.2993 37.3999 37.2505 37.2653 37.3482 37.045L37.4825 36.739L37.7755 36.8614L37.7511 36.9226C37.7145 37.0083 37.7022 37.0694 37.7877 37.1062L37.8488 37.1306C37.9586 37.1796 38.0197 37.1062 38.0685 36.9838L38.1662 36.7513C38.2272 36.6166 38.2028 36.5432 38.0929 36.4943L37.5435 36.2617C37.4336 36.2128 37.3482 36.2495 37.2871 36.3719L37.1895 36.5922C37.1406 36.7145 37.1528 36.8124 37.2627 36.8614L37.0796 37.2897C36.8354 37.1796 36.7011 36.9226 36.8354 36.6166L37.0552 36.1149C37.1895 35.7967 37.4459 35.711 37.69 35.8089L38.2761 36.0659Z" fill="white"/>
<path d="M38.8621 34.4505C39.1063 34.5239 39.2039 34.7197 39.1063 35.0379L39.0086 35.3439C38.9475 35.5274 38.8376 35.6131 38.6423 35.6009L37.519 35.5519L37.5557 35.0869L38.6545 35.148C38.7278 35.148 38.7522 35.1113 38.7766 35.0624L38.7888 35.0379C38.8132 34.9522 38.7766 34.9278 38.7033 34.9033L38.0318 34.6952C37.9464 34.6708 37.8853 34.6952 37.8609 34.7809L37.8487 34.8176L37.5435 34.7197L37.6289 34.426C37.7022 34.1935 37.8731 34.1445 38.044 34.1935L38.8621 34.4505Z" fill="white"/>
<path d="M39.6805 32.6025L39.6195 32.8962C39.5584 33.1899 39.4119 33.2389 39.2288 33.2022L37.9834 32.9452L38.0811 32.4924L39.2044 32.7249C39.302 32.7494 39.3387 32.7249 39.3509 32.627L39.3631 32.5413L39.6805 32.6025ZM39.5096 33.4347L39.4486 33.7284C39.3875 34.0222 39.241 34.0711 39.0578 34.0344L37.8125 33.7774L37.9102 33.3246L39.0334 33.5571C39.1311 33.5816 39.1677 33.5571 39.1799 33.4592L39.1922 33.3735L39.5096 33.4347Z" fill="white"/>
<path d="M39.4482 30.7301C39.7046 30.7546 39.8633 30.9259 39.8267 31.2563L39.729 32.1742L39.4116 32.1375L39.4848 31.4032C39.497 31.293 39.4604 31.1951 39.3383 31.1829L39.2529 31.1706C39.1186 31.1584 39.0697 31.2318 39.0575 31.3542L39.0209 31.7091C38.9965 31.9906 38.8011 32.1375 38.5691 32.113H38.5081C38.2883 32.0885 38.1418 31.9172 38.1662 31.6235L38.2639 30.6689L38.5813 30.7056L38.5081 31.4521C38.4959 31.5745 38.4959 31.6479 38.5813 31.6479H38.6058C38.6912 31.6602 38.7034 31.599 38.7156 31.4644L38.7523 31.1339C38.7889 30.8035 38.9354 30.6689 39.2284 30.6934L39.4482 30.7301Z" fill="white"/>
<path d="M38.0567 30.571L38.0323 31.036L37.5073 31.0116L37.5317 30.5465L38.0567 30.571Z" fill="white"/>
<path d="M0.219767 35.8823L1.50174 35.454L1.7093 36.0903C1.80698 36.3963 1.52616 36.5309 1.42849 36.5554L1.00116 36.69C0.708139 36.7757 0.512791 36.8002 0.402907 36.482L0.219767 35.8823ZM0 35.7477L0.268605 36.5799C0.427326 37.0572 0.87907 36.947 1.03779 36.8858L1.42849 36.7635C2.02674 36.5676 1.92907 36.2005 1.86802 36.0047L1.61163 35.2214L0 35.7477Z" fill="white"/>
<path d="M1.31861 37.3998C1.57501 37.3019 1.66047 37.2897 1.78257 37.5834C1.89245 37.8282 1.88024 37.8771 1.57501 38.0117L1.31861 37.3998ZM1.25757 38.1464L1.22094 38.1586C1.06222 38.2198 1.02559 38.1586 0.927914 37.9261C0.805821 37.6323 0.83024 37.5834 1.18431 37.4365L1.51396 38.232L1.62384 38.1831C2.02675 38.0117 2.06338 37.8649 1.91687 37.51C1.75815 37.1183 1.61164 37.0572 1.14768 37.253C0.720356 37.4488 0.610472 37.5712 0.793612 37.9995C0.891286 38.2443 1.00117 38.4645 1.29419 38.3422L1.33082 38.3299L1.25757 38.1464Z" fill="white"/>
<path d="M2.36847 38.8684C2.50277 39.1377 2.41731 39.2111 2.09986 39.3702C1.758 39.5415 1.66033 39.5293 1.53824 39.2845C1.39172 39.0031 1.55045 38.9051 1.79463 38.7705C2.08765 38.6359 2.20975 38.5625 2.36847 38.8684ZM2.33184 38.5135L2.24638 38.3544L0.732422 39.1132L0.817887 39.2723L1.40393 38.9786V38.9908C1.30626 39.1132 1.37952 39.2723 1.44056 39.3947C1.59928 39.7006 1.77021 39.7496 2.18533 39.5415C2.50277 39.3824 2.71033 39.2356 2.51498 38.8562C2.45393 38.7216 2.35626 38.587 2.19754 38.587V38.5747L2.33184 38.5135Z" fill="white"/>
<path d="M2.21003 40.5328C2.10014 40.3615 2.06351 40.2636 2.25886 40.1534C2.42979 40.0555 2.47863 40.129 2.58851 40.3125C2.6984 40.5084 2.77165 40.6185 2.57631 40.7409C2.39317 40.8388 2.29549 40.6797 2.21003 40.5328ZM2.36875 41.0591L3.06468 40.643C3.38212 40.4594 3.29665 40.2514 3.13793 39.9943C3.00363 39.7618 2.88154 39.5905 2.61293 39.7496L2.58851 39.7618L2.68619 39.9209L2.72282 39.8964C2.85712 39.8108 2.94258 39.9576 3.01584 40.08C3.11351 40.2514 3.16235 40.3615 2.967 40.4716L2.78386 40.5818L2.77165 40.5695C2.85712 40.4961 2.74724 40.2881 2.68619 40.1902C2.53968 39.9332 2.41758 39.8108 2.12456 39.9821C1.85596 40.1412 1.90479 40.3248 2.05131 40.5573C2.12456 40.6919 2.22224 40.8388 2.36875 40.8265V40.8388L2.25886 40.9L2.36875 41.0591Z" fill="white"/>
<path d="M3.69942 40.9367L3.57733 41.0101C3.72384 40.9856 3.82151 41.0835 3.90698 41.1937C4.02907 41.3895 4.00465 41.5364 3.8093 41.6587L3.73605 41.7077L3.63837 41.5608L3.69942 41.5119C3.82151 41.4262 3.83372 41.365 3.74826 41.2304C3.62616 41.0468 3.49186 41.0468 3.32093 41.1692L2.71047 41.5853L2.61279 41.4385L3.60175 40.7776L3.69942 40.9367Z" fill="white"/>
<path d="M4.505 42.3196L4.22419 41.9524L3.62593 42.4052C3.52825 42.4909 3.51605 42.5276 3.60151 42.6377C3.69918 42.7724 3.77244 42.7234 3.85791 42.65L3.93116 42.601L4.02884 42.7357L3.95558 42.7846C3.76023 42.9315 3.61372 42.9192 3.46721 42.7234C3.29628 42.5031 3.33291 42.4052 3.55267 42.2339L4.1143 41.8178L4.01663 41.6954L4.12651 41.6097L4.22419 41.7321L4.45616 41.5608L4.56605 41.7076L4.33407 41.879L4.61488 42.2461L4.505 42.3196Z" fill="white"/>
<path d="M4.7863 42.7356C4.94502 42.6867 5.09153 42.7968 5.20141 42.907C5.29909 43.0171 5.38455 43.1762 5.29909 43.3108C5.47002 43.2619 5.61653 43.3843 5.72642 43.4944C5.92176 43.7269 5.89735 43.886 5.67758 44.0818L5.09153 44.5958L4.96944 44.4612L5.54328 43.9595C5.68979 43.8248 5.75083 43.7514 5.59211 43.5678C5.43339 43.3843 5.29909 43.3476 5.10374 43.5066L4.55432 43.9839L4.43223 43.8493L5.03049 43.3231C5.14037 43.2129 5.22583 43.1517 5.0549 42.9559C4.89618 42.7724 4.73746 42.7479 4.55432 42.907L4.01711 43.372L3.89502 43.2374L4.7863 42.4542L4.90839 42.5888L4.7863 42.7356Z" fill="white"/>
<path d="M6.04381 44.5837C6.23916 44.4001 6.31241 44.3389 6.54439 44.5715C6.73974 44.755 6.75195 44.804 6.53218 45.0487L6.04381 44.5837ZM6.28799 45.2935L6.25137 45.3302C6.14148 45.4526 6.06823 45.4037 5.8973 45.2323C5.66532 45.012 5.67753 44.9631 5.93392 44.6816L6.54439 45.2813L6.62985 45.1956C6.93509 44.8774 6.91067 44.7305 6.62985 44.4613C6.32462 44.1676 6.1659 44.1798 5.82404 44.5347C5.5066 44.8652 5.45776 45.0243 5.78741 45.3425C5.98276 45.526 6.1659 45.6851 6.38567 45.4526L6.41009 45.4281L6.28799 45.2935Z" fill="white"/>
<path d="M7.32583 45.3179C7.46014 45.2445 7.60665 45.3547 7.71653 45.4403C7.94851 45.6361 8.00955 45.7952 7.78979 46.04L7.277 46.6397L7.14269 46.5295L7.65548 45.9176C7.78979 45.7463 7.75316 45.6729 7.59444 45.5382C7.37467 45.3547 7.26479 45.3791 7.09386 45.5872L6.65432 46.1134L6.52002 46.0033L7.277 45.0977L7.4113 45.2078L7.32583 45.3179Z" fill="white"/>
<path d="M8.80294 46.4806L8.43666 46.1991L7.98492 46.7988C7.91166 46.9089 7.92387 46.9456 8.02154 47.0191C8.15585 47.117 8.20468 47.0436 8.27794 46.9579L8.32678 46.8845L8.46108 46.9824L8.41224 47.0558C8.26573 47.2516 8.13143 47.2761 7.93608 47.1292C7.71631 46.9579 7.71631 46.86 7.87503 46.6397L8.29015 46.0767L8.16806 45.9788L8.25352 45.8687L8.37561 45.9666L8.54654 45.7341L8.69305 45.8442L8.52212 46.0767L8.8884 46.3582L8.80294 46.4806Z" fill="white"/>
<path d="M9.92603 47.7778C10.1336 47.4229 10.1824 47.3862 10.451 47.5453C10.7318 47.7044 10.7196 47.7656 10.5121 48.1205C10.3045 48.4754 10.2679 48.5121 9.98708 48.3408C9.71847 48.1939 9.71847 48.1327 9.92603 47.7778ZM9.76731 47.6799C9.51091 48.1083 9.53533 48.2429 9.91382 48.4632C10.2923 48.6835 10.4266 48.6345 10.6708 48.2062C10.9272 47.7656 10.9028 47.631 10.5243 47.4107C10.1458 47.2026 10.0237 47.2516 9.76731 47.6799Z" fill="white"/>
<path d="M11.7941 48.1327L11.7331 48.2551L11.4523 48.1082L10.9761 49.0383L10.8174 48.9527L11.2935 48.0226L11.1348 47.9369L11.1959 47.8145L11.3546 47.9002L11.4156 47.7778C11.5499 47.5208 11.672 47.4841 11.9284 47.6187C11.9651 47.6309 11.9895 47.6554 12.0261 47.6677L11.9651 47.8023C11.9284 47.7778 11.904 47.7656 11.8674 47.7411C11.7087 47.6554 11.6598 47.7044 11.5866 47.839L11.5133 47.9858L11.7941 48.1327Z" fill="white"/>
<path d="M13.9065 48.6712C14.1263 48.7569 14.1629 48.8181 14.053 49.124C13.9309 49.43 13.8088 49.381 13.5768 49.2954L13.1129 49.124L13.3571 48.4754L13.9065 48.6712ZM12.6245 49.8216L12.8077 49.8951L13.0396 49.2709L13.6623 49.5034C14.0408 49.6503 14.1751 49.3076 14.2361 49.1608C14.3338 48.8915 14.346 48.659 14.0408 48.5366L13.235 48.2307L12.6245 49.8216Z" fill="white"/>
<path d="M14.7247 49.3198L14.6759 49.4544C14.7735 49.3443 14.9201 49.3565 15.0422 49.3933C15.2619 49.4544 15.323 49.6013 15.2619 49.8094L15.2375 49.895L15.0788 49.8461L15.1032 49.7726C15.1398 49.638 15.1154 49.5646 14.9689 49.5279C14.7613 49.4667 14.6637 49.5401 14.6026 49.7482L14.3828 50.458L14.2119 50.409L14.5538 49.2709L14.7247 49.3198Z" fill="white"/>
<path d="M15.5181 50.7761L15.3472 50.7272L15.6402 49.5768L15.8111 49.6257L15.5181 50.7761ZM15.8966 49.332L15.7257 49.2831L15.7745 49.0995L15.9454 49.1484L15.8966 49.332Z" fill="white"/>
<path d="M16.3604 49.9685C16.4581 49.8339 16.6412 49.8216 16.7877 49.8461C16.922 49.8706 17.1052 49.944 17.1174 50.1031C17.2273 49.9685 17.4104 49.9562 17.5691 49.993C17.8744 50.0542 17.9476 50.1888 17.8988 50.4825L17.7523 51.2535L17.5813 51.2168L17.7279 50.458C17.7645 50.2622 17.7523 50.1643 17.5203 50.1276C17.2761 50.0786 17.154 50.1276 17.1052 50.3846L16.9709 51.0944L16.8 51.0577L16.9465 50.2744C16.9709 50.1153 16.9831 50.0174 16.7389 49.9685C16.5069 49.9195 16.3726 50.0052 16.3238 50.2377L16.1895 50.9353L16.0186 50.8986L16.2383 49.736L16.4093 49.7727L16.3604 49.9685Z" fill="white"/>
<path d="M18.7167 51.2289C18.5091 51.2045 18.4236 51.1922 18.4481 50.9597C18.4725 50.7639 18.5579 50.7639 18.7655 50.7884C18.9853 50.8128 19.1196 50.8251 19.0951 51.0454C19.0829 51.2534 18.8998 51.2412 18.7167 51.2289ZM19.2417 51.4125L19.3271 50.6048C19.3637 50.2499 19.1562 50.1887 18.851 50.1642C18.5824 50.1397 18.3748 50.1397 18.3504 50.4335V50.4579L18.5335 50.4824V50.4457C18.5457 50.2866 18.7167 50.2988 18.8632 50.3111C19.0585 50.3356 19.1806 50.36 19.1562 50.5803L19.1318 50.8006H19.1196C19.1074 50.6905 18.8754 50.6537 18.7655 50.6415C18.4725 50.617 18.3015 50.6415 18.2649 50.9719C18.2283 51.2779 18.4114 51.3513 18.68 51.3758C18.8265 51.388 18.9975 51.4003 19.0829 51.2779H19.0951L19.0829 51.4003L19.2417 51.4125Z" fill="white"/>
<path d="M19.938 50.2621L19.9258 50.409C19.9991 50.2866 20.1334 50.2499 20.2677 50.2621C20.4997 50.2744 20.5973 50.3845 20.5851 50.6048V50.6905L20.4142 50.6782V50.5926C20.4142 50.4457 20.3776 50.3968 20.2188 50.3845C19.9991 50.3723 19.9258 50.4824 19.9136 50.6905L19.8892 51.437L19.7061 51.4248L19.7549 50.2377L19.938 50.2621Z" fill="white"/>
<path d="M21.403 51.5594C21.3419 51.7797 21.2931 52 21.0123 52.0122C20.9878 52.0122 20.9512 52 20.9268 52V51.8654C20.9512 51.8654 20.9634 51.8654 20.9878 51.8654C21.171 51.8654 21.1954 51.6206 21.232 51.4738H21.171L20.7192 50.2867H20.9024L21.2809 51.3391H21.2931L21.5495 50.2744H21.7326L21.403 51.5594Z" fill="white"/>
<path d="M23.4664 51.3391L23.271 51.3636L23.0879 49.6747L23.2832 49.6503L23.4664 51.3391Z" fill="white"/>
<path d="M23.9546 50.2255C23.9913 50.0786 24.1622 50.0297 24.2965 50.0174C24.6017 49.9685 24.7604 50.0297 24.7971 50.3479L24.9192 51.1311L24.7482 51.1556L24.6261 50.3601C24.5895 50.152 24.504 50.1276 24.3087 50.152C24.0157 50.201 23.9668 50.2989 24.0157 50.5681L24.1256 51.2535L23.9546 51.278L23.7715 50.1031L23.9424 50.0786L23.9546 50.2255Z" fill="white"/>
<path d="M25.8591 50.7884C25.6149 50.8496 25.5173 50.8129 25.4318 50.4212C25.3341 50.0174 25.3829 49.9562 25.6516 49.895C25.9324 49.8338 26.0056 49.9562 26.0789 50.2744C26.1644 50.6293 26.1277 50.7272 25.8591 50.7884ZM26.2132 50.8496L26.3841 50.8129L26.0056 49.1607L25.8347 49.1974L25.9812 49.8338C25.8957 49.6992 25.7004 49.7359 25.5783 49.7604C25.1632 49.8583 25.1754 50.1153 25.2609 50.458C25.3463 50.8129 25.444 51.0454 25.8469 50.9475C26.0056 50.9108 26.1399 50.8496 26.1766 50.7027L26.2132 50.8496Z" fill="white"/>
<path d="M27.593 50.2989C27.5686 50.458 27.4343 50.5314 27.2877 50.5681C26.9825 50.6538 26.8482 50.5681 26.7505 50.2744L26.5308 49.5401L26.7017 49.4912L26.9215 50.2254C26.9825 50.409 27.0191 50.5069 27.2389 50.4335C27.4831 50.3601 27.593 50.2866 27.5075 50.0174L27.2999 49.3198L27.4709 49.2709L27.8127 50.409L27.6418 50.458L27.593 50.2989Z" fill="white"/>
<path d="M28.8505 49.0751L28.6796 49.1363L28.6674 49.0995C28.6186 48.9894 28.5453 49.0139 28.3622 49.0873C28.1546 49.1607 28.0569 49.2097 28.1058 49.3443C28.179 49.5401 28.2279 49.5034 28.411 49.4545C28.704 49.3566 28.9482 49.2219 29.0825 49.5768C29.2046 49.895 28.9848 49.9807 28.7407 50.0786C28.4965 50.1643 28.2401 50.2499 28.1546 50.0052L28.118 49.895L28.2889 49.8338L28.3255 49.9195C28.3622 50.0296 28.4354 50.0174 28.6918 49.9195C28.8017 49.8706 28.997 49.8338 28.9116 49.638C28.8383 49.43 28.7651 49.5034 28.5575 49.5646C28.3133 49.638 28.0814 49.7604 27.9593 49.4422C27.8372 49.124 28.0203 49.0384 28.3133 48.9282C28.5087 48.8548 28.7529 48.7691 28.8505 49.0261V49.0751Z" fill="white"/>
<path d="M29.7296 48.5121L29.3145 48.6956L29.6198 49.381C29.6808 49.5034 29.7174 49.5156 29.8395 49.4544C29.9982 49.381 29.9616 49.3075 29.9128 49.1974L29.8761 49.1117L30.0349 49.0383L30.0715 49.124C30.1692 49.3443 30.1203 49.4789 29.9006 49.5768C29.6442 49.6869 29.5587 49.638 29.4488 49.3932L29.168 48.7568L29.0215 48.818L28.9604 48.6834L29.107 48.6222L28.9849 48.353L29.1436 48.2795L29.2657 48.5488L29.6808 48.3652L29.7296 48.5121Z" fill="white"/>
<path d="M30.084 48.1816L30.1451 48.3162C30.1451 48.1694 30.2549 48.0715 30.377 48.0225C30.5846 47.9246 30.7189 47.9736 30.8166 48.1694L30.8532 48.2428L30.7067 48.3162L30.6701 48.2428C30.609 48.1082 30.5358 48.0837 30.4015 48.1571C30.2061 48.2551 30.1939 48.3897 30.2916 48.5732L30.6212 49.2341L30.4625 49.3198L29.9253 48.255L30.084 48.1816Z" fill="white"/>
<path d="M30.8408 47.2026L30.6821 47.2882L30.7798 47.4596L30.9385 47.3739L30.8408 47.2026ZM31.085 47.6554L30.9263 47.7411L31.5001 48.7813L31.6589 48.6956L31.085 47.6554Z" fill="white"/>
<path d="M31.8298 47.79C31.6955 47.5575 31.6589 47.4718 31.9397 47.3005C32.1717 47.1536 32.2205 47.1536 32.4037 47.4351L31.8298 47.79ZM32.5868 47.7166L32.6112 47.7533C32.6967 47.9002 32.6357 47.9491 32.4281 48.0837C32.1595 48.2551 32.1107 48.2306 31.9153 47.9124L32.6479 47.4596L32.5868 47.3617C32.3548 46.9945 32.2083 46.9823 31.8787 47.1781C31.5124 47.3984 31.488 47.5575 31.7444 47.9736C31.9886 48.353 32.1229 48.4509 32.5136 48.2061C32.7333 48.0715 32.9409 47.9246 32.77 47.6554L32.7455 47.6187L32.5868 47.7166Z" fill="white"/>
<path d="M33.5635 46.4071L33.4048 46.5173L33.3804 46.4806C33.3071 46.3827 33.2338 46.4316 33.0873 46.5418C32.9042 46.6764 32.8187 46.7376 32.9042 46.8477C33.0263 47.019 33.0629 46.9701 33.2216 46.8722C33.478 46.7131 33.6856 46.505 33.9054 46.8232C34.1007 47.0925 33.9176 47.2393 33.6978 47.3984C33.4902 47.5453 33.2583 47.6921 33.1118 47.4841L33.0507 47.3984L33.1972 47.2883L33.2461 47.3617C33.3071 47.4474 33.3804 47.4351 33.6001 47.276C33.6978 47.2026 33.8687 47.117 33.7466 46.9456C33.6123 46.762 33.5635 46.8477 33.3804 46.9701C33.1606 47.1047 32.9652 47.276 32.7699 47.0068C32.5745 46.7253 32.7211 46.6029 32.9897 46.4194C33.1606 46.297 33.3682 46.1501 33.5269 46.3704L33.5635 46.4071Z" fill="white"/>
<path d="M35.6265 45.6606C35.48 45.7952 35.3945 45.8564 35.248 45.6851C35.1137 45.5382 35.1747 45.4771 35.3335 45.3302C35.5044 45.1711 35.5899 45.0854 35.7486 45.2568C35.8829 45.4159 35.7486 45.5382 35.6265 45.6606ZM36.1149 45.3914L35.5654 44.7917C35.3212 44.5225 35.1381 44.6449 34.9183 44.8529C34.723 45.0242 34.5765 45.1833 34.784 45.4159L34.7962 45.4281L34.9305 45.3057L34.9183 45.2812C34.8085 45.1589 34.9305 45.0487 35.0404 44.9508C35.1869 44.8162 35.2846 44.755 35.4311 44.9141L35.5776 45.0732L35.5654 45.0854C35.48 45.0242 35.2968 45.1711 35.2114 45.2445C34.9916 45.4403 34.9061 45.5872 35.1259 45.832C35.3335 46.0645 35.5044 45.9666 35.6997 45.7952C35.8096 45.6973 35.9317 45.575 35.8951 45.4281H35.9073L35.9928 45.5138L36.1149 45.3914Z" fill="white"/>
<path d="M35.834 44.192C35.773 44.0452 35.8829 43.9106 35.9805 43.8127C36.1881 43.5924 36.3468 43.5434 36.5788 43.7759L37.1526 44.3267L37.0305 44.4613L36.4445 43.9106C36.2858 43.7637 36.2003 43.8004 36.066 43.9473C35.8707 44.1553 35.8829 44.2655 36.0904 44.4613L36.591 44.9386L36.4689 45.0732L35.6143 44.2532L35.7364 44.1186L35.834 44.192Z" fill="white"/>
<path d="M37.7023 43.4822C37.5436 43.678 37.4459 43.7147 37.1285 43.4455C36.811 43.1763 36.811 43.1028 36.982 42.8825C37.1651 42.6623 37.2994 42.7112 37.5558 42.9315C37.8366 43.164 37.8732 43.2742 37.7023 43.4822ZM38.0076 43.3109L38.1174 43.1763L36.811 42.0993L36.7012 42.2339L37.2017 42.65C37.0552 42.6011 36.9209 42.7479 36.8355 42.8458C36.5669 43.1763 36.7256 43.3598 37.0064 43.5924C37.2872 43.8249 37.4948 43.9473 37.7756 43.6168C37.8732 43.4945 37.9587 43.3598 37.8855 43.213L38.0076 43.3109Z" fill="white"/>
<path d="M39.7167 40.8755L39.619 41.0346L37.9585 40.7776L39.2894 41.5853L39.1917 41.7567L37.7266 40.8755L37.8975 40.594L39.4481 40.8388L38.5202 39.566L38.6911 39.2845L40.144 40.1657L40.0463 40.337L38.7155 39.5293L39.7167 40.8755Z" fill="white"/>
<path d="M40.4617 39.5415L40.3763 39.7006L39.3263 39.1622L39.4117 39.0031L40.4617 39.5415ZM39.1309 38.844L39.0454 39.0031L38.8745 38.9174L38.96 38.7583L39.1309 38.844Z" fill="white"/>
<path d="M39.8023 38.5135C39.6924 38.3911 39.7534 38.232 39.8145 38.1096C39.9366 37.8282 40.0709 37.7302 40.3761 37.8771L41.0965 38.2075L41.0232 38.3666L40.2907 38.0362C40.0953 37.9505 40.0221 38.0117 39.9366 38.1953C39.8145 38.4645 39.8755 38.5624 40.1197 38.6726L40.7546 38.9541L40.6814 39.1132L39.6069 38.6236L39.6802 38.4645L39.8023 38.5135Z" fill="white"/>
<path d="M40.6816 37.3509C40.4374 37.2408 40.3519 37.2041 40.474 36.8981C40.5717 36.6411 40.6083 36.6166 40.9258 36.7268L40.6816 37.3509ZM41.231 36.8369L41.2676 36.8492C41.4264 36.9103 41.4141 36.9838 41.3287 37.2163C41.2188 37.5223 41.17 37.5223 40.8159 37.3999L41.1211 36.5922L41.0112 36.5432C40.5961 36.3841 40.474 36.4698 40.3397 36.8369C40.1932 37.2408 40.2665 37.3754 40.7182 37.5467C41.1455 37.7058 41.3043 37.6936 41.4752 37.2653C41.5729 37.0205 41.6339 36.788 41.3409 36.6778L41.3043 36.6656L41.231 36.8369Z" fill="white"/>
<path d="M41.2184 35.197L41.1696 35.3805L41.1207 35.3683C40.9986 35.3316 40.9742 35.4173 40.9254 35.6008C40.8643 35.8089 40.8277 35.919 40.9742 35.9557C41.1818 36.0169 41.1818 35.9557 41.2428 35.7844C41.3527 35.4907 41.3893 35.2214 41.7556 35.3316C42.073 35.4295 42.0242 35.6498 41.951 35.9068C41.8777 36.1515 41.7922 36.4085 41.5358 36.3351L41.426 36.2984L41.4748 36.1271L41.5603 36.1515C41.6701 36.1883 41.7068 36.1271 41.7922 35.8578C41.8289 35.7354 41.9021 35.5641 41.7068 35.5029C41.4992 35.4417 41.5114 35.5396 41.426 35.7477C41.3405 35.9924 41.2794 36.2495 40.962 36.1515C40.6324 36.0536 40.6812 35.8578 40.7789 35.5519C40.8399 35.3561 40.9254 35.1113 41.1818 35.1847L41.2184 35.197Z" fill="white"/>
<path d="M32.3788 32.8105C32.452 32.272 32.5009 31.7335 32.5009 31.1706C32.5009 30.6198 32.4642 30.0691 32.3788 29.5306H31.0968C30.9869 28.8331 30.816 28.1722 30.5718 27.5358L31.6706 26.8994C31.4264 26.2998 31.1334 25.7001 30.8038 25.1494C29.7782 25.3574 28.191 24.6599 27.8491 22.714C27.8491 22.714 26.1886 23.7542 27.6293 25.6879C27.6538 25.7123 28.5206 26.9362 28.8259 27.597C29.3142 28.6862 29.595 29.8856 29.595 31.1583C29.595 35.8945 25.7735 39.725 21.0485 39.725C16.3357 39.725 12.502 35.8945 12.502 31.1583C12.502 29.91 12.7706 28.7107 13.259 27.646C13.5642 26.9606 14.4311 25.7368 14.4311 25.7368C15.945 23.7787 14.2113 22.7507 14.2113 22.7507C14.016 23.9745 13.1369 24.6476 13.1369 24.6476C12.6974 24.9658 12.1846 25.1861 11.5863 25.1861C11.4642 25.1861 11.3665 25.1739 11.2445 25.1616C10.927 25.7001 10.6218 26.312 10.3776 26.8994L11.4764 27.5358C11.2322 28.1722 11.0613 28.8453 10.9514 29.5306H9.66946C9.5962 30.0691 9.54736 30.6076 9.54736 31.1706C9.54736 31.7213 9.58399 32.272 9.66946 32.8105H10.9759C11.0857 33.4958 11.2689 34.1567 11.5131 34.7931L10.3776 35.4539C10.7927 36.4819 11.3421 37.4365 12.0136 38.2809L13.1613 37.6078C13.5886 38.1341 14.077 38.6114 14.602 39.0397L13.9305 40.2023C14.7852 40.8754 15.7375 41.4261 16.7509 41.8422L17.4224 40.6674C18.045 40.8999 18.7043 41.0835 19.3759 41.1936V42.5521C19.9131 42.6255 20.4503 42.6744 21.0119 42.6744C21.5613 42.6744 22.1107 42.6377 22.6479 42.5521V41.1936C23.3195 41.0835 23.9788 40.9121 24.6014 40.6674L25.2729 41.8422C26.2985 41.4261 27.2509 40.8754 28.0933 40.2023L27.4218 39.0397C27.9468 38.6114 28.4352 38.1341 28.8625 37.6078L30.0102 38.2809C30.6817 37.4243 31.2311 36.4697 31.6462 35.4539L30.5107 34.7931C30.7549 34.1567 30.9381 33.4958 31.048 32.8105H32.3788Z" fill="white"/>
<path d="M18.8513 8.84818C18.3751 8.8849 18.5216 8.32194 18.2774 8.17508C18.0332 8.02823 17.8257 8.23627 17.8257 8.23627C18.2408 8.2118 18.0943 9.10519 18.8391 9.05623C19.5228 9.00728 19.3396 8.13837 19.3396 8.13837C19.0832 7.6366 19.0588 7.42855 19.0344 7.01246C19.01 6.55964 19.1687 5.54388 20.1943 5.47045C21.2321 5.39702 21.4274 6.11907 21.4274 6.11907C21.635 5.11554 20.7315 4.8463 20.7315 4.8463L20.9146 4.51587C20.7681 4.30782 20.8414 3.9162 20.8414 3.9162L20.4141 4.35677L20.0478 3.94068L19.7059 4.39349C19.5716 4.1732 19.2053 4.00187 19.2053 4.00187C19.3641 4.25887 19.2175 4.56482 19.2175 4.56482L19.3885 4.87078C18.7292 5.1033 18.7048 5.50716 18.6559 5.70297C18.5949 5.94774 18.546 5.91102 18.5216 5.97221C18.5094 6.0334 18.6437 6.11907 18.6437 6.11907L18.5338 6.24145C18.2774 6.13131 18.0699 5.71521 18.0699 5.71521C17.9478 6.89008 18.4117 7.25722 18.7414 7.67332C19.0588 8.06494 19.303 8.81147 18.8513 8.84818Z" fill="white"/>
<path d="M19.376 3.83049L19.6934 4.05078L20.0353 3.62244L20.4382 4.01406L20.6824 3.81825C20.426 3.42663 20.1574 3.40216 20.1574 3.40216L20.3161 3.10844C20.1085 2.94934 20.0475 2.30072 20.0475 2.30072C20.0841 2.65563 19.7667 3.08396 19.7667 3.08396L19.9132 3.40216C19.6202 3.47558 19.376 3.83049 19.376 3.83049Z" fill="white"/>
<path d="M19.083 9.20302C19.4127 9.55793 19.8278 9.66807 20.1574 9.66807C20.7679 9.65583 21.2074 9.23974 21.2074 9.23974C20.8778 9.01945 20.9388 8.57887 20.951 8.49321C20.951 8.49321 20.6336 8.72573 20.3284 8.71349C19.7911 8.68902 19.5103 8.23621 19.5103 8.23621C19.6813 8.88483 19.083 9.20302 19.083 9.20302Z" fill="white"/>
<path d="M18.8999 9.23975L18.7412 9.31318C18.7412 9.31318 19.1441 9.99852 20.1819 9.97404C21.0488 9.94956 21.4639 9.41108 21.4639 9.41108L21.3418 9.32541C21.3418 9.32541 20.8534 9.82718 20.1819 9.82718C19.2784 9.83942 18.8999 9.23975 18.8999 9.23975Z" fill="white"/>
<path d="M15.2617 9.06845L15.4937 9.25202C15.4937 9.25202 16.0065 9.2765 16.1774 8.97054C16.1774 8.97054 16.1286 8.64011 15.5792 8.55444C15.567 8.55444 15.6158 8.76249 15.2617 9.06845Z" fill="white"/>
<path d="M15.5059 9.42335L15.4448 9.76602C15.7501 9.85169 16.1041 9.70483 16.1041 9.70483C16.2506 9.49678 16.2262 9.20306 16.2262 9.20306C15.9576 9.44783 15.5059 9.42335 15.5059 9.42335Z" fill="white"/>
<path d="M15.3715 9.94962C15.3715 9.94962 15.2983 10.329 15.0175 10.7451C14.6878 11.2713 14.346 12.177 14.3704 12.3605C14.3826 12.5441 14.5657 12.948 14.8099 13.1683C14.8099 13.1683 14.8954 12.5686 15.5913 11.6262C15.5913 11.6262 15.689 11.1979 15.8477 10.7696C15.9942 10.3657 16.0797 9.88843 16.0797 9.88843C16.0797 9.88843 15.7012 10.0475 15.3715 9.94962Z" fill="white"/>
<path d="M16.3727 15.9952C16.3116 15.8484 16.275 15.6893 16.2628 15.6403C16.0675 15.9096 15.8233 15.9585 15.6768 16.0075C15.7378 16.1176 15.7989 16.2645 15.8599 16.3624C16.0919 16.3012 16.2994 16.1298 16.3727 15.9952Z" fill="white"/>
<path d="M16.8976 12.4096C16.9831 12.2994 17.0808 12.1893 17.154 12.0792C17.0686 11.8466 16.8366 11.4061 16.2261 11.1246C16.1407 11.247 16.0552 11.3693 15.9575 11.504C16.1651 11.5774 16.5924 11.8099 16.8976 12.4096Z" fill="white"/>
<path d="M17.2638 11.7242C17.2394 11.5651 17.2028 11.2713 17.2883 10.9899C17.2883 10.9899 17.0197 10.5371 17.2028 9.88843C17.2028 9.88843 16.8243 10.3045 16.3481 10.9287C16.6045 11.0511 17.0074 11.3081 17.2638 11.7242Z" fill="white"/>
<path d="M16.1897 15.4201C16.1653 15.31 16.1042 15.0897 16.1164 14.6369C16.1408 13.6089 15.9699 13.3029 15.9699 13.3029C15.9699 13.3029 16.3606 12.997 16.7391 12.5809C16.6414 12.3728 16.3972 11.9935 15.8234 11.6875C15.4571 12.0914 15.1397 12.6421 14.9443 13.3274C14.9443 13.3274 15.0054 14.6859 15.5426 15.7995C15.8967 15.7261 16.092 15.5548 16.1897 15.4201Z" fill="white"/>
<path d="M17.5447 8.89715L17.3616 10.5493L17.5447 10.8553L17.2273 14.796C17.0197 14.9306 16.8244 15.0652 16.8 15.1753C16.7511 15.3589 16.7755 15.6404 16.6779 15.8484C16.4215 16.3992 16.1284 16.4481 15.9819 16.5215C16.1407 16.7051 16.3971 16.8153 16.5191 16.8275C16.8244 16.852 17.0686 16.6562 17.0808 16.6439L17.0197 17.4272L16.7633 17.6352L16.6412 19.0426L16.9831 18.6755L17.2395 19.1038L17.3494 17.6964L17.1907 17.4272L17.2639 16.546C17.2517 16.5582 17.7889 16.1666 17.8377 15.9096C17.8744 15.7261 17.7523 15.6649 17.8011 15.5058C17.85 15.3467 17.8255 15.0897 17.7034 15.0162C17.7034 15.0162 17.7889 14.4655 17.4226 14.698L17.7157 10.9287L17.9598 10.635L18.0575 8.98282L17.8622 8.65239L17.7401 8.76253C17.2761 8.10167 17.0564 7.36738 17.0808 6.5719C17.093 6.14356 17.1784 5.70299 17.325 5.23794C17.6912 4.08755 18.3872 3.13297 18.6924 2.71687C19.5471 1.54201 19.9622 0.771005 20.1209 0.440574C20.243 0.844434 20.5971 1.4441 21.0122 2.17839C21.7447 3.45116 22.6604 5.04213 22.8069 6.30266C22.8191 6.43728 22.8314 6.58414 22.8191 6.731C22.7947 7.6611 22.3918 8.66463 21.7203 9.39892C21.2564 9.91292 20.6581 10.1699 20.1819 10.1699C18.9732 10.1577 18.5947 9.43563 18.6191 9.42339L18.4482 9.50906C18.436 9.54578 18.8023 10.3535 20.1697 10.3413C20.7069 10.329 21.3052 10.072 21.7936 9.53354C22.5994 8.65239 23.0511 7.35514 22.929 6.27818C22.7825 4.99318 21.8546 3.38997 21.1098 2.10497C20.6337 1.27277 20.2674 0.562956 20.1819 0.208049L20.1209 0L20.0476 0.159096C20.0476 0.171334 19.6814 1.02801 18.5459 2.59449C18.2407 3.01059 17.5325 3.98964 17.1662 5.15227C16.7267 6.53518 16.8732 7.77124 17.618 8.82372L17.5447 8.89715Z" fill="white"/>
<path d="M23.5883 6.68205L23.5395 7.31843C23.5029 7.29396 23.454 7.28172 23.4174 7.25724C23.3075 7.20829 23.2465 7.08591 23.2465 7.08591C23.2465 7.08591 23.0389 7.35515 23.3564 7.51424C23.3564 7.51424 23.3564 7.5632 23.2587 7.69782C23.161 7.83244 23.1366 7.90586 23.2221 8.00377C23.3075 8.10168 23.1732 8.11391 23.2343 8.26077C23.2953 8.40763 23.2221 8.41987 23.2831 8.4933C23.3442 8.56673 23.3442 8.54225 23.4418 8.60344V8.73806L23.393 8.8482L23.4418 8.92163L23.2465 9.03178L23.4907 9.48459L23.8081 9.08073L23.6738 8.95835L23.7349 8.87268L23.7227 8.76254V8.73806C23.7837 8.76254 23.8325 8.77477 23.8814 8.78701C24.1133 8.81149 24.2721 8.87268 24.4064 9.05625C24.4064 9.05625 24.736 8.81149 25.0168 8.83596C25.0168 8.83596 24.6506 7.9181 23.8203 7.44081L23.8936 6.68205C23.8936 6.68205 24.5895 6.64533 24.675 5.94776C24.7849 5.07885 24.5285 4.90751 24.5895 4.57708C24.5895 4.57708 24.2721 4.99318 24.4308 5.51942C24.5773 6.02119 24.2721 6.30266 24.0645 6.217C23.8692 6.13133 23.857 5.70299 24.0279 5.06661C24.2354 4.30784 23.9913 3.50012 23.9913 3.50012C23.9913 3.50012 23.5883 4.28336 23.686 5.02989C23.7837 5.77642 23.7104 6.10685 23.5151 6.16804C23.332 6.22923 23.0267 6.00895 23.2465 5.56837C23.4663 5.1278 23.454 4.82184 23.2709 4.47918C23.2831 4.74842 23.0145 5.18899 22.9535 5.62956C22.8924 6.07014 23.0267 6.49847 23.5883 6.68205Z" fill="white"/>
<path d="M24.4922 9.22758L24.5654 9.7783C24.5654 9.7783 24.9195 9.5213 25.2003 9.59473C25.2003 9.59473 25.1881 9.31325 25.1027 9.08073C25.1027 9.08073 24.8341 8.99506 24.4922 9.22758Z" fill="white"/>
<path d="M24.5285 10.2067C24.3331 11.149 24.1256 11.663 24.1256 11.663L23.7227 11.5284C23.7227 11.5284 24.0157 12.1158 24.0889 12.6176C24.0889 12.6176 24.6994 12.7889 24.8459 12.6543C24.9924 12.5197 25.4075 11.455 25.2488 9.75385C25.2366 9.76608 24.6261 9.75385 24.5285 10.2067Z" fill="white"/>
<path d="M23.9915 12.8378C23.9915 12.8378 23.8206 12.2993 23.5886 11.6996C23.088 11.8465 22.6851 12.2626 22.5142 12.4584C22.9171 13.3151 23.4543 13.7312 23.4543 13.7312C23.8328 14.0127 24.6019 14.3186 25.249 14.5511C25.4322 14.4288 25.5054 14.1228 25.4688 13.9515C25.2002 13.7679 24.9926 13.5476 24.7118 13.3028C24.4554 13.0581 23.9915 12.8378 23.9915 12.8378Z" fill="white"/>
<path d="M25.481 14.6368C25.5908 14.6736 25.6885 14.7103 25.7862 14.7347C25.9327 14.5267 25.9815 14.3431 25.9937 14.2085C25.8961 14.184 25.7984 14.1473 25.7007 14.0861C25.6763 14.3554 25.5664 14.5389 25.481 14.6368Z" fill="white"/>
<path d="M21.4152 11.6875C21.171 12.4707 20.6704 12.6788 20.5728 12.7032C20.7193 14.6246 22.0623 14.4411 22.0623 14.4411C22.0623 14.4411 21.9646 14.1963 21.8425 14.0005C21.7326 13.8169 21.7448 13.4865 21.9158 13.0704C22.0867 12.6543 22.2088 11.6263 22.2088 11.6263C22.3431 11.4182 22.6605 11.0633 23.271 10.892C23.1489 10.5983 23.0268 10.3413 22.9169 10.1822C22.6483 9.79056 22.5262 9.82727 22.5262 9.82727C22.5262 9.82727 22.0867 10.072 21.6594 10.0476C21.6838 10.2067 21.6594 10.5738 21.5739 10.7696C21.5617 11.0266 21.5251 11.3081 21.4152 11.6875Z" fill="white"/>
<path d="M22.4282 12.2626C22.6968 11.8465 23.3073 11.5773 23.5149 11.4916C23.466 11.357 23.4172 11.2346 23.3561 11.1C22.7579 11.2224 22.3672 11.6629 22.3062 11.9322C22.3428 12.0301 22.3916 12.1769 22.4282 12.2626Z" fill="white"/>
<path d="M22.526 9.65589C22.1231 9.66813 21.9522 9.53351 21.9522 9.53351C21.9522 9.53351 21.879 9.70484 21.6104 9.88841C22.1598 9.93737 22.526 9.65589 22.526 9.65589Z" fill="white"/>
<path d="M20.707 10.3779C21.1221 10.8063 21.3908 10.6839 21.3908 10.6839C21.5495 10.3902 21.4884 10.0965 21.464 10.0108C21.2809 10.1577 21.0367 10.2923 20.707 10.3779Z" fill="white"/>
<path d="M17.9232 12.2871C17.9843 12.8133 18.3017 13.156 18.7779 13.8658C19.2052 14.5144 19.0099 15.1631 19.0099 15.1631C19.7424 14.698 19.0953 12.4707 19.0953 12.4707C18.1064 11.6997 18.3383 10.6594 18.3383 10.6594C18.1796 10.0965 18.3628 9.77827 18.3994 9.75379C18.3017 9.63141 18.2773 9.55798 18.2773 9.55798C17.9843 10.023 18.1552 10.6717 18.1552 10.6717L17.9843 11.0388C17.9843 11.0388 17.85 11.6385 17.9232 12.2871Z" fill="white"/>
<path d="M19.5352 10.4514C19.5962 10.7451 19.9869 11.1735 19.9869 11.1735C20.2189 10.9777 20.402 10.5738 20.4753 10.4514C20.3532 10.4759 20.1456 10.5004 20.0235 10.5004C19.8038 10.5004 19.7183 10.4759 19.5352 10.4514Z" fill="white"/>
<path d="M18.5095 9.93738C18.3385 10.3045 18.5217 10.6594 18.5217 10.6594C18.7414 10.635 19.0222 10.4391 19.1321 10.3535C18.8391 10.2311 18.6682 10.121 18.5095 9.93738Z" fill="white"/>
<path d="M18.485 10.8185C18.3873 11.5773 19.0832 12.2137 19.0832 12.2137C18.9367 11.406 19.0832 10.586 19.0832 10.586C18.8391 10.8185 18.485 10.8185 18.485 10.8185Z" fill="white"/>
<path d="M20.6946 14.955C20.6946 14.955 20.8411 14.7714 21.0853 14.7592C21.3661 14.7469 21.4394 14.9305 21.4394 14.9305C21.7935 14.8448 21.9888 14.5878 21.9888 14.5878C20.4627 14.6368 20.4016 12.6909 20.4016 12.6909C20.3528 13.1682 19.9254 13.4374 19.9254 13.4374C19.4981 13.0336 19.5592 12.7888 19.5592 12.7888L19.3394 12.6909C19.3394 12.6909 19.5714 13.8291 19.4981 14.4777C19.4371 15.1141 19.1196 15.2854 19.1196 15.2854C19.3028 15.3344 19.8033 15.2732 19.8033 15.2732C19.8033 15.2732 20.0231 14.906 20.3283 14.8448C20.597 14.8081 20.6946 14.955 20.6946 14.955Z" fill="white"/>
<path d="M18.6558 15.8484C18.5826 16.0687 18.2896 16.1176 18.2896 16.1176C18.7535 16.3379 19.5959 16.2033 19.5959 16.2033C19.6204 15.7994 19.7791 15.4445 19.7791 15.4445C19.3518 15.518 19.0343 15.4323 19.0343 15.4323C18.8146 15.3956 18.7047 15.7015 18.6558 15.8484Z" fill="white"/>
<path d="M17.7036 17.3904C17.7036 17.3904 18.7048 17.9044 19.6327 17.3292C19.6327 17.3292 19.5472 16.8886 19.5838 16.3868C19.5838 16.3868 19.0344 16.4236 18.7658 16.3991C18.7658 16.3991 18.5705 16.4113 18.4728 16.7173C18.424 16.9008 18.1676 17.4883 17.7036 17.3904Z" fill="white"/>
<path d="M18.3506 17.7209C18.6802 18.1248 18.9488 17.8678 19.1686 17.9534C19.3884 18.0391 19.3884 18.2349 19.5837 18.2839C19.7302 18.3328 19.8523 18.0269 19.657 17.4761C19.5837 17.5251 19.3273 17.6842 18.9488 17.7209C18.6924 17.7454 18.3506 17.7209 18.3506 17.7209Z" fill="white"/>
<path d="M18.9364 19.8381C18.7533 19.6667 18.912 19.5688 18.5579 19.5688C18.2527 19.5688 18.155 19.2996 18.1672 19.1282C18.1916 18.9569 18.1306 18.8468 18.1306 18.8468C18.1306 18.8468 18.155 18.7244 18.3137 18.9814C18.4724 19.2384 18.6189 19.1038 18.8387 19.0793C19.0585 19.0548 19.0463 19.2873 19.3515 19.3852C19.6567 19.4832 19.6812 18.9324 19.6812 18.9324C19.4736 18.9814 19.2294 18.8223 19.1562 18.651C19.0829 18.4796 19.0096 18.3695 18.8143 18.394C18.5823 18.4062 18.4846 18.3328 18.3992 18.1981C18.3137 18.0513 18.2038 17.7331 18.2038 17.7331C18.2038 17.7331 17.8253 18.4551 17.6422 19.2017C17.4591 19.9237 17.0317 19.6545 17.0317 19.6545C17.0317 19.6545 17.2271 20.4622 18.387 20.5601C19.6323 20.6703 19.9131 19.9115 19.9131 19.9115C19.6567 20.1318 19.1928 20.0828 18.9364 19.8381Z" fill="white"/>
<path d="M20.5849 15.0774C20.5849 15.0774 20.5238 14.9918 20.3773 15.0285C19.657 15.1631 19.6814 16.5705 19.8279 17.4761C19.8645 17.7209 20.0599 18.2594 19.7546 18.4429C19.4494 18.6265 19.3273 18.3083 19.2296 18.1982C19.1442 18.088 18.9855 18.1003 18.7779 18.1248C18.607 18.137 18.4116 17.9657 18.4116 17.9657C18.5215 18.2349 18.7169 18.2716 18.8389 18.2716C19.0099 18.2716 19.0831 18.3083 19.1198 18.3695C19.193 18.4797 19.2785 18.7611 19.6081 18.7734C20.1209 18.7856 20.2919 18.4062 20.2919 18.137C20.2919 18.0146 20.1698 16.5338 20.2064 16.0198C20.2919 15.2733 20.5849 15.0774 20.5849 15.0774Z" fill="white"/>
<path d="M20.2308 18.6999C20.1576 18.8345 19.8279 18.9202 19.8279 18.9202C19.8279 18.9202 19.8279 19.4342 19.5593 19.5321C19.2907 19.63 19.1442 19.4709 19.0221 19.3363C18.9 19.1894 18.7779 19.2261 18.607 19.2751C18.4361 19.3363 18.314 19.1894 18.314 19.1894C18.3384 19.3975 18.4483 19.4709 18.607 19.4219C18.7657 19.3852 18.9 19.5198 18.9366 19.581C18.9855 19.6912 19.1442 19.9237 19.6081 19.887C20.3773 19.8258 20.2308 18.6999 20.2308 18.6999Z" fill="white"/>
<path d="M26.0794 21.6371C25.6154 21.3311 25.5055 21.1475 25.0416 21.1475C24.248 21.1475 23.8817 21.8818 23.2346 21.9553C22.7462 22.0042 22.1724 21.8329 21.7939 21.0741C21.7939 21.0741 21.4154 21.0374 21.3299 21.0252C21.0125 20.9884 20.8294 20.7314 20.8294 20.4255C20.8294 19.8992 21.2689 19.7524 21.3299 19.4831C21.3299 19.4831 21.0369 18.6877 20.9759 17.0355C20.927 15.6036 21.2811 15.0774 21.2811 15.0774C21.2811 15.0774 21.2811 14.9183 21.0369 14.955C20.8049 14.9917 20.3654 15.3956 20.3776 16.3991C20.3898 17.1946 20.4753 18.0023 20.4753 18.0023C20.4753 18.0023 20.5241 18.345 20.3776 18.5408C20.3776 18.5408 20.4387 19.2996 20.1823 19.7891C20.1579 20.2541 20.3898 22.4937 22.4044 22.9343C23.5154 23.1791 24.3334 22.3714 24.6265 22.1633C25.066 21.8451 25.3712 21.9675 25.8352 22.1633C26.5311 22.457 27.1172 22.0654 27.2637 21.4902C27.0805 21.7717 26.6532 22.0164 26.0794 21.6371Z" fill="white"/>
<path d="M23.1244 14.5022C23.1244 14.5022 22.5627 14.8449 22.2575 14.5389C22.2575 14.5389 22.0988 14.9428 21.4273 15.1141C21.4273 15.1141 21.2808 15.4568 21.2441 15.7383C21.2441 15.7383 22.2331 15.6404 23.1244 14.5022Z" fill="white"/>
<path d="M21.1465 16.9376C21.1465 16.9376 21.9767 17.1334 22.5628 16.6561C23.0267 16.2767 22.929 15.9708 23.4662 15.726C24.0157 15.4813 24.3087 15.0407 24.2599 14.4532C24.2599 14.4532 24.1378 14.7959 23.5883 14.8571C23.2831 14.8816 23.1 14.8082 23.1 14.8082C23.1 14.8082 22.4162 15.7138 21.2075 15.9585C21.2075 15.9463 21.1221 16.5215 21.1465 16.9376Z" fill="white"/>
<path d="M23.8447 15.7016C23.5761 15.8607 23.2343 15.9586 22.9535 16.4971C22.7337 16.9254 22.0988 17.2681 21.1465 17.1334C21.1465 17.1334 21.1831 18.4184 21.4761 19.2996C21.4761 19.2996 22.1965 18.0391 23.4052 16.6439C25.2244 14.5389 26.3354 15.3589 26.3354 15.3589C26.3354 15.3589 25.786 14.8449 24.4064 14.8694C24.4064 14.8694 24.3575 15.3956 23.8447 15.7016Z" fill="white"/>
<path d="M25.1754 17.6107C25.3586 17.5128 27.2144 17.0233 26.7138 15.9341C26.2132 14.8449 24.3208 15.3956 24.0278 16.7296C23.7592 17.9656 24.6993 18.6999 24.6993 18.6999C24.2842 17.9167 24.9923 17.6964 25.1754 17.6107Z" fill="white"/>
<path d="M24.1134 18.2349C23.4297 17.2313 24.0401 16.2401 24.0401 16.2401C24.0401 16.2401 22.9169 17.1212 22.9413 17.9779C22.9657 18.8345 23.6983 19.0915 23.6983 19.0915C23.6128 18.5531 24.1134 18.2349 24.1134 18.2349Z" fill="white"/>
<path d="M22.1963 18.5776C22.2085 18.6632 22.3306 19.0671 22.9288 19.1283L23.1974 18.8958C22.5259 18.3695 22.8434 17.574 22.8434 17.574C22.8434 17.574 22.2451 18.345 22.1963 18.5776Z" fill="white"/>
<path d="M21.8789 19.0915C21.8789 19.0915 21.9644 19.4586 22.5626 19.5688C22.6115 19.4464 22.8435 19.2383 22.8435 19.2383C22.1964 19.2139 22.0865 18.7121 22.0865 18.7121C22.001 18.7855 21.8789 19.0915 21.8789 19.0915Z" fill="white"/>
<path d="M21.4029 19.7647C21.2319 19.936 20.9877 20.1196 21 20.3888C21.0244 20.7193 21.2808 20.8294 21.5494 20.8539C21.8058 20.8661 22.6604 20.8783 23.4174 20.9518C24.1744 21.0252 24.1744 20.1808 24.1744 20.1808C23.9302 20.9395 22.6604 20.1563 22.5017 20.0217C22.3552 19.8871 22.5139 19.7035 22.5139 19.7035C21.9401 19.6545 21.7691 19.2507 21.7691 19.2507C21.7691 19.2507 21.5005 19.6545 21.4029 19.7647Z" fill="white"/>
<path d="M27.7639 12.8256C27.6662 12.9113 27.5563 12.9847 27.4586 13.0214C27.4342 13.0337 27.422 13.0459 27.3976 13.0582C27.5075 9.94966 27.5075 9.88847 27.5075 9.88847C27.5441 9.26432 27.4098 8.88494 27.1412 8.54227C26.9581 8.30974 26.2499 7.71007 26.1156 7.45307C25.9813 7.19607 26.1278 7.04921 26.2621 6.76773C26.3964 6.48625 26.2743 6.47401 26.1767 6.3394C26.0912 6.21701 26.0546 6.07016 26.1889 5.83763C26.3232 5.6051 26.1645 5.55615 26.1645 5.55615C26.2377 5.6663 26.1767 5.73972 26.079 5.84987C25.9813 5.96001 25.9325 6.13135 26.0057 6.31492C26.079 6.49849 26.14 6.58416 25.9813 6.68206C25.6639 6.89011 25.9569 7.01249 25.7249 7.12264C25.5418 7.22054 25.7371 7.42859 25.6639 7.48978C25.4929 7.64888 25.5784 7.68559 25.615 7.74678C25.6395 7.80798 25.6272 7.82021 25.6639 7.89364C25.6883 7.95483 25.7982 8.06498 25.7982 8.06498C25.7738 8.23631 25.9325 8.2975 25.9325 8.2975C25.8714 8.17512 25.9081 8.00379 26.0546 7.89364C26.2011 7.7835 26.4941 8.08945 26.9703 8.59122C27.4342 9.08075 27.3365 9.98637 27.3365 9.98637C27.3365 9.98637 27.3121 10.0598 27.19 13.1928C27.0679 13.2907 26.9092 13.4131 26.8726 13.462C26.7749 13.5477 26.6772 13.7802 26.5918 13.9271C26.5185 14.0494 26.3598 14.1841 26.3598 14.1841C26.2743 14.2453 26.2255 14.233 26.1889 14.1963C26.1889 14.5023 26.1156 14.6858 26.0301 14.7715C26.1767 14.8204 26.2865 14.8572 26.3354 14.8816C26.5918 14.9795 26.7017 14.8939 26.897 14.7103C26.9336 14.6736 27.0313 14.6002 27.1168 14.539C27.0435 16.2278 26.9947 17.5373 26.9947 17.7209C26.9825 18.2594 26.5307 18.5898 26.2011 18.5653C25.9325 18.5409 26.1156 18.2227 26.1156 18.2227C25.8592 18.3206 25.7738 18.6755 25.7982 18.8713C25.8348 19.1283 25.9691 19.3975 26.0424 19.5689C26.14 19.7891 26.2133 19.9115 26.079 20.3031C25.9447 20.6825 26.2499 20.8049 26.2499 20.8049C26.0668 20.6948 26.14 20.4745 26.1645 20.3643C26.2011 20.2542 26.3842 20.0584 26.311 19.8136C26.1522 19.3119 26.372 19.4098 26.3354 19.2017C26.3232 19.1038 26.3232 19.0916 26.6895 18.8346C27.0557 18.5776 27.2389 18.1125 27.2633 17.3415C27.2633 17.1824 27.3121 15.9586 27.361 14.3554L27.4953 14.2942C27.4953 14.2942 27.6296 14.3187 27.7028 14.2208C27.7761 14.1351 27.6906 13.9393 27.6906 13.9393C27.6906 13.9393 27.7517 13.8047 27.7272 13.6945C27.7028 13.5722 27.6296 13.6578 27.6418 13.511C27.6418 13.3763 27.4831 13.2784 27.4831 13.2784C27.6051 13.1438 27.8005 13.0092 27.8738 12.8991C27.947 12.7644 27.8371 12.7644 27.7639 12.8256Z" fill="white"/>
<path d="M26.0059 22.6039C25.3588 22.2857 25.078 22.2 24.4675 22.6895C23.8448 23.1913 22.8437 23.6931 21.7693 23.0567C20.0355 22.0164 20.0355 20.095 20.0355 20.095C19.828 20.4132 20.0478 21.3678 20.2187 21.9675C20.3896 22.5304 20.4873 23.1913 20.4873 23.1913C21.0245 23.9868 21.928 24.2071 22.4652 24.2438C23.6007 24.3294 24.3088 23.8766 24.7605 23.4238C25.3222 22.8853 25.371 22.8609 26.0791 23.0567C26.946 23.3014 27.1414 22.3836 27.1414 22.3836C26.8972 22.763 26.4454 22.8241 26.0059 22.6039Z" fill="white"/>
<path d="M13.8942 8.77473C13.8698 8.78697 13.8331 8.81144 13.7965 8.82368C14.5291 9.15411 14.6634 8.71354 14.6634 8.71354C14.6634 8.68906 14.6756 8.66458 14.6756 8.64011C14.7122 8.66458 14.7488 8.7013 14.7977 8.72578C14.7977 8.75025 14.7977 8.77473 14.7855 8.7992C14.7733 8.83592 14.7611 8.86039 14.7488 8.89711C14.8221 8.87263 14.8831 8.83592 14.932 8.81144C14.993 8.84816 15.0541 8.88487 15.1273 8.92159C15.1273 8.92159 15.3593 8.82368 15.4448 8.46877C15.4448 8.46877 15.3837 8.4443 15.2983 8.39534C15.3227 8.27296 15.2738 8.19953 15.2738 8.19953C15.2128 8.11387 15.1518 8.06491 15.0663 8.01596C15.1518 8.01596 15.2494 8.0282 15.3349 8.10163C15.3715 8.11387 15.3959 8.15058 15.4081 8.1873C15.4326 8.21177 15.4448 8.24849 15.457 8.2852C15.7866 7.55091 15.3471 7.41629 15.3471 7.41629C15.2372 7.40405 15.164 7.40405 15.0663 7.42853C15.1273 7.36734 15.2006 7.30615 15.3227 7.29391C15.3593 7.28167 15.3959 7.28167 15.4326 7.29391C15.4692 7.30615 15.4936 7.31838 15.5302 7.33062C15.2494 6.58409 14.8465 6.79214 14.8465 6.79214C14.7611 6.85333 14.7122 6.91452 14.6634 7.00019C14.6634 6.91452 14.6756 6.81662 14.7488 6.73095C14.7611 6.69424 14.7977 6.66976 14.8343 6.65752C14.8587 6.64529 14.8954 6.62081 14.932 6.60857C14.7977 6.54738 14.6878 6.51066 14.5901 6.49843C14.5535 6.38828 14.4925 6.29038 14.407 6.22919C14.407 6.22919 14.3948 6.33933 14.3704 6.49843C14.1262 6.53514 14.0773 6.71871 14.0773 6.71871C14.0651 6.81662 14.0651 6.89005 14.0895 6.98795C14.0895 6.98795 14.0895 6.98795 14.0773 6.98795C14.0163 6.92676 13.9675 6.85333 13.9552 6.74319C13.943 6.70648 13.943 6.66976 13.9552 6.63305C13.9675 6.59633 13.9797 6.57186 13.9919 6.53514C13.2471 6.81662 13.4547 7.22048 13.4547 7.22048C13.5157 7.30615 13.5645 7.34286 13.65 7.40405V7.41629C13.5768 7.41629 13.4791 7.39181 13.3936 7.33062C13.357 7.31838 13.3326 7.28167 13.3204 7.24496C13.3082 7.22048 13.2837 7.18376 13.2715 7.14705C12.9419 7.88134 13.3814 8.01596 13.3814 8.01596C13.4791 8.0282 13.5523 8.0282 13.6378 8.00372V8.01596C13.5768 8.06491 13.5035 8.1261 13.3936 8.13834C13.357 8.15058 13.3204 8.15058 13.2837 8.13834C13.2471 8.1261 13.2227 8.11387 13.1861 8.10163C13.4669 8.84816 13.8698 8.64011 13.8698 8.64011C13.9552 8.57892 14.0041 8.52996 14.0529 8.4443H14.0651C14.0651 8.52996 14.0529 8.61563 13.9797 8.7013C13.9552 8.73801 13.9308 8.75025 13.8942 8.77473ZM14.7855 7.37958C14.9442 7.58762 14.932 7.8691 14.7733 8.06491C14.6512 7.94253 14.5535 7.80791 14.5657 7.66105C14.5657 7.52643 14.5901 7.37958 14.6023 7.22048C14.6756 7.25719 14.7366 7.30615 14.7855 7.37958ZM13.9064 8.06491C13.7233 7.82015 13.7599 7.46524 14.0041 7.28167C14.0773 7.22048 14.175 7.18376 14.2605 7.17153C14.2238 7.46524 14.1872 7.72224 14.175 7.79567C14.1628 7.89358 14.1262 8.05267 14.2849 8.2852C14.1506 8.26072 14.0041 8.1873 13.9064 8.06491Z" fill="white"/>
<path d="M20.3283 8.50555C20.951 8.50555 21.4394 7.84469 21.4394 7.03697C21.4394 6.22925 21.2074 5.65405 20.3039 5.65405C19.5225 5.65405 19.2051 6.21701 19.2051 7.03697C19.2173 7.84469 19.7179 8.50555 20.3283 8.50555Z" fill="white"/>
<path d="M19.2421 12.0913C19.2421 12.0913 19.4009 11.9934 19.5962 12.0056C19.5962 12.0056 19.6573 11.6874 19.9381 11.357C19.9381 11.357 19.4375 10.9287 19.3154 10.4391C19.3154 10.4391 19.1323 11.0511 19.2421 12.0913Z" fill="white"/>
<path d="M20.0601 11.3692C20.2188 11.5405 20.3287 11.7486 20.3653 11.9322C20.3165 11.5895 20.4263 10.8674 20.4263 10.8674C20.2676 11.1734 20.0601 11.3692 20.0601 11.3692Z" fill="white"/>
<path d="M20.194 12.1771C20.194 12.1771 20.2062 11.8956 19.9743 11.6508C19.9743 11.6508 19.7423 11.8956 19.7423 12.1648C19.7423 12.1648 19.4615 12.1036 19.2539 12.3117C19.2539 12.3117 19.376 12.6054 19.7179 12.5809C19.7179 12.5809 19.6568 12.8502 19.962 13.1806C19.962 13.1806 20.1696 13.0704 20.2062 12.5809C20.2062 12.5809 20.5603 12.5932 20.719 12.4218C20.719 12.4218 20.5725 12.1281 20.194 12.1771Z" fill="white"/>
<path d="M20.5239 12.0301C20.7315 12.0545 20.8536 12.2504 20.8536 12.2504C21.3786 11.8465 21.3786 10.8674 21.3786 10.8674C20.9513 10.9286 20.6704 10.5737 20.6704 10.5737C20.585 10.9654 20.5239 12.0301 20.5239 12.0301Z" fill="white"/>
<path d="M19.8033 20.3643C19.8033 20.3643 19.3637 20.7315 18.6312 20.7315C18.0329 20.7315 17.6422 20.5357 17.6422 20.5357C17.4957 21.1965 18.0696 21.7595 18.326 22.4326C18.6556 23.3015 18.0207 23.3382 18.0207 23.3382C18.8387 23.5707 19.498 23.1301 19.7789 22.6284C20.1573 21.943 19.9254 21.5392 19.8521 21.1598C19.7667 20.7437 19.8033 20.3643 19.8033 20.3643Z" fill="white"/>
<path d="M18.7901 23.5707C18.7901 23.5707 19.1563 24.2438 18.6802 24.6232C18.6802 24.6232 19.8034 24.6477 20.1819 23.6564C20.4139 23.0567 20.1087 22.3469 20.1087 22.3469C20.1087 22.3469 19.8645 23.3137 18.7901 23.5707Z" fill="white"/>
<path d="M19.3882 24.6354L19.6446 25.0883C19.6446 25.0883 20.1207 25.1862 20.5114 24.819L20.3039 23.84C20.3039 23.8522 20.0719 24.4519 19.3882 24.6354Z" fill="white"/>
<path d="M19.8037 25.5778C19.8037 25.5778 20.2921 25.7124 20.6095 25.3453L20.5485 25.0271C20.5485 25.0271 20.1456 25.3331 19.7061 25.2596L19.8037 25.5778Z" fill="white"/>
<path d="M20.6824 25.5533C20.6824 25.5533 20.4627 25.8225 19.84 25.7491C19.84 25.7491 19.84 25.9694 19.6813 26.0918C19.5225 26.2141 18.2284 26.9117 18.0208 26.1407C18.0208 26.1407 17.9842 26.9729 18.7411 26.9484C19.4981 26.924 20.2917 26.9484 20.5481 26.9362C20.8045 26.9362 21.1097 26.8505 21.0975 26.5446C21.0975 26.3488 20.9754 26.2141 20.8045 25.8837C20.7435 25.7613 20.6824 25.5533 20.6824 25.5533Z" fill="white"/>
<path d="M14.9928 21.8084C15.6888 21.6371 15.6155 22.2367 16.2504 22.4448C16.9707 22.6896 17.2516 21.7839 17.8254 21.7472C17.8254 21.7472 17.4469 21.2454 17.4835 20.707C17.2027 20.7804 17.0196 20.9884 16.7876 21.3434C16.58 21.6615 16.1893 21.6983 15.8353 21.4413C15.4812 21.1843 15.3225 21.3189 14.9806 21.4657C14.3946 21.7227 14.1626 21.2087 14.1626 21.2087C14.1992 21.6615 14.5655 21.9063 14.9928 21.8084Z" fill="white"/>
<path d="M18.2528 22.9466C18.2772 22.6774 18.1429 22.4081 17.8865 21.9308C17.6301 22.0165 17.4836 22.0655 17.215 22.3837C16.5923 23.0812 15.9452 22.7019 15.6522 22.3469C15.3836 22.0288 15.1883 21.9676 14.822 22.0532C14.2604 22.1756 14.1993 21.8819 14.1993 21.8819C14.1871 22.0165 14.2726 22.3592 14.7976 22.3347C15.3836 22.3102 15.2371 23.2159 16.3237 23.5218C16.9586 23.7054 17.4226 23.326 17.7888 23.1057C17.972 22.9711 18.1307 22.9344 18.2528 22.9466Z" fill="white"/>
<path d="M27.3488 27.4869L27.6663 27.2177L27.2023 26.667L26.8849 26.9362C25.7494 25.7491 24.3697 25.0883 23.1122 25.0148L23.1 25.1372C23.1 25.1372 24.6872 25.4432 25.5785 26.6792C26.0668 27.3523 25.3099 28.0621 25.3099 28.0621L25.4075 28.1845L21.061 31.8315L18.4604 29.7755L18.436 29.8L18.6314 29.543L18.2651 29.1024L18.729 28.417C18.729 28.417 17.5814 27.5726 16.5924 26.9362C15.6035 26.2876 14.3703 27.0341 14.3703 27.0341C14.3703 27.0341 13.9308 28.4048 14.7854 29.2248C15.6401 30.0447 16.7145 30.9748 16.7145 30.9748L17.3128 30.314L17.8133 30.5954L17.9965 30.3629L20.475 32.3333L15.4447 36.5554L15.9087 37.1061L21.0488 32.7983L24.4674 35.5152C24.4674 35.5152 24.2232 36.0169 24.7116 36.4086C25.2 36.788 25.7982 37.2652 25.7982 37.2652C25.7982 37.2652 25.9692 37.3387 26.1035 37.1551C26.1767 37.0694 26.2988 36.8981 26.4087 36.7635C26.5064 36.6289 26.5918 36.531 26.5918 36.531C26.7017 36.3963 26.8238 36.2372 26.8971 36.1393C27.0314 35.968 26.9337 35.8211 26.9337 35.8211C26.9337 35.8211 26.3354 35.3439 25.8471 34.9645C25.3587 34.5851 24.9314 34.9278 24.9314 34.9278L21.6349 32.3088L25.8593 28.7597L25.957 28.8821C25.957 28.8821 26.7872 28.2579 27.361 28.8576C28.411 29.9468 28.4354 31.5745 28.4354 31.5745L28.5575 31.5867C28.7285 30.3017 28.3133 28.8209 27.3488 27.4869ZM25.1145 35.5152C25.3465 35.2215 25.6517 35.405 25.6517 35.405L26.3843 35.9925L26.2133 36.2005L26.0302 36.433L25.8593 36.6533L25.1267 36.0659C25.1267 36.0659 24.8825 35.8089 25.1145 35.5152Z" fill="white"/>
</g>
<defs>
<clipPath id="clip0">
<rect width="42" height="52" fill="white"/>
</clipPath>
</defs>
</svg>
