<svg width="71" height="32" viewBox="0 0 71 32" fill="none" xmlns="http://www.w3.org/2000/svg">
<g clip-path="url(#clip0)">
<path d="M31.8313 5.1123H35.3006C36.7153 5.1123 37.7688 5.3079 38.4612 5.69909C39.1535 6.09028 39.773 6.70922 40.3196 7.55591C40.8683 8.40367 41.1427 9.47543 41.1427 10.7712C41.1427 12.3981 40.6631 13.7571 39.7039 14.8482C38.7447 15.9392 37.4216 16.4847 35.7346 16.4847H31.8313V5.1123ZM34.4453 7.20223V14.3385H35.5289C36.4999 14.3385 37.2206 13.9763 37.6911 13.2518C38.1722 12.4893 38.4177 11.6018 38.3969 10.7004C38.4029 10.0415 38.2652 9.38922 37.9934 8.78897C37.7244 8.20379 37.3905 7.79277 36.9918 7.55591C36.5534 7.31052 36.0568 7.18831 35.5546 7.20223H34.4453Z" fill="white"/>
<path d="M45.5894 12.2566V16.4799H42.8838V5.1123H47.3643C48.3621 5.1123 49.1268 5.21948 49.6584 5.43383C50.2273 5.67924 50.7182 6.07563 51.0779 6.58008C51.5055 7.16521 51.7251 7.87655 51.7017 8.60088C51.7011 9.1647 51.588 9.72274 51.3689 10.2423C51.1744 10.7384 50.8494 11.1728 50.4284 11.4994C50.0787 11.7765 49.6785 11.9829 49.25 12.1071C48.6625 12.2263 48.0631 12.2764 47.4639 12.2566H45.5894ZM45.4962 10.1924H47.2292C47.8894 10.1924 48.353 10.0397 48.6198 9.73426C48.8806 9.4459 49.0235 9.07005 49.0201 8.68126C49.0296 8.4767 48.9947 8.2725 48.9179 8.0827C48.841 7.89289 48.724 7.72196 48.5748 7.58164C48.279 7.30994 47.8273 7.1749 47.2228 7.1749H45.4962V10.1924Z" fill="white"/>
<path d="M55.8332 5.1123V16.4799H53.1758V5.1123H55.8332Z" fill="white"/>
<path d="M63.151 16.4799L60.3457 7.21027V16.4799H58.1143V5.1123H62.2603L64.2554 11.9158L66.355 5.1123H70.5139V16.4799H67.8324V7.21027L64.974 16.4799H63.151Z" fill="white"/>
<path d="M35.1139 22.7979L36.8936 28.4824H35.4628L35.1123 27.3121H33.278L32.9211 28.4824H31.7507L33.5722 22.7979H35.1139ZM33.5995 26.2623H34.8036L34.2008 24.2753L33.5995 26.2623Z" fill="white"/>
<path d="M41.9013 24.9183L40.5075 25.0067C40.4882 24.204 40.1753 23.8026 39.5687 23.8026C38.8731 23.8026 38.5253 24.4205 38.5253 25.6562C38.5253 26.369 38.6196 26.8512 38.8083 27.1031C38.8988 27.2269 39.0185 27.3264 39.1568 27.3929C39.295 27.4594 39.4476 27.4907 39.6008 27.4841C40.1517 27.4841 40.4888 27.1261 40.612 26.4102L41.8981 26.489C41.8167 27.1696 41.5637 27.6867 41.1393 28.0404C40.6427 28.4233 40.0223 28.6098 39.3968 28.5641C38.7713 28.5184 38.1846 28.2438 37.7488 27.7928C37.2794 27.273 37.0447 26.5554 37.0447 25.6402C37.0447 24.7828 37.2719 24.0802 37.7263 23.5325C38.1807 22.9849 38.8029 22.7116 39.5928 22.7126C40.956 22.7116 41.7256 23.4468 41.9013 24.9183Z" fill="white"/>
<path d="M45.4271 22.7979L47.2068 28.4824H45.776L45.4255 27.3121H43.588L43.2311 28.4824H42.064L43.8886 22.7979H45.4271ZM43.9063 26.2623H45.1104L44.514 24.2753L43.9063 26.2623Z" fill="white"/>
<path d="M47.8176 22.7979H49.5523C50.2596 22.7979 50.7869 22.8959 51.1342 23.092C51.5155 23.3214 51.835 23.6404 52.065 24.0213C52.3567 24.5053 52.5004 25.0642 52.4782 25.6289C52.5034 26.3725 52.2493 27.0986 51.766 27.6642C51.2848 28.2086 50.6235 28.4814 49.7822 28.4824H47.8176V22.7979ZM49.1262 23.8428V27.4118H49.6761C49.8881 27.4247 50.0997 27.3812 50.2895 27.2858C50.4793 27.1903 50.6403 27.0463 50.7564 26.8684C50.9972 26.4869 51.1202 26.0429 51.1101 25.5919C51.1132 25.2626 51.0441 24.9366 50.9075 24.637C50.808 24.3853 50.6334 24.1703 50.4075 24.0213C50.1888 23.8973 49.9402 23.8356 49.6889 23.8428H49.1262Z" fill="white"/>
<path d="M57.4072 23.8814H54.7015V25.0469H56.8284V26.1176H54.7015V27.3571H57.4072V28.4824H53.3479V22.7979H57.4072V23.8814Z" fill="white"/>
<path d="M60.7254 28.4825L59.3219 23.8476V28.4825H58.2046V22.7979H60.2865L61.2784 26.2044L62.3266 22.8027H64.4068V28.4873H63.0661V23.8476L61.6369 28.4825H60.7254Z" fill="white"/>
<path d="M69.6412 22.7979L67.8551 26.0887V28.4824H66.5256V26.0887L64.7395 22.7979H66.2844L67.368 24.9505L68.4467 22.7979H69.6412Z" fill="white"/>
<path d="M27.7253 21.4812V24.1579L13.9752 32L0.262045 24.0454L0 8.32595L13.8643 0L27.7253 8.06551V10.5927L13.8643 2.5272L2.08189 9.36609V22.8943L13.8643 29.5837L27.7253 21.4812Z" fill="white"/>
<path d="M27.7251 12.4496V14.7935L13.975 22.9716L3.75366 16.9461V14.607L13.8641 20.7L27.7251 12.4496Z" fill="white"/>
<path d="M27.7251 8.24072V10.5831L13.975 18.7579L3.75366 12.7373V10.3966L13.8641 16.4911L27.7251 8.24072Z" fill="white"/>
<path d="M27.7251 16.946V19.2916L13.975 27.4648L3.75366 21.4426V19.1035L13.8641 25.1964L27.7251 16.946Z" fill="white"/>
</g>
<defs>
<clipPath id="clip0">
<rect width="70.5141" height="32" fill="white"/>
</clipPath>
</defs>
</svg>
