<svg width="16" height="16" viewBox="0 0 16 16" fill="none" xmlns="http://www.w3.org/2000/svg">
<path d="M11.9531 16H9.23167L8.05865 15.5894L6.82698 16H4.04692C2.97361 16 1.94426 15.5736 1.18532 14.8147C0.426371 14.0557 0 13.0264 0 11.9531L0 4.04692C0 2.97361 0.426371 1.94426 1.18532 1.18532C1.94426 0.426371 2.97361 0 4.04692 0L11.9531 0C13.0254 0.00309485 14.053 0.430459 14.8113 1.18873C15.5695 1.94701 15.9969 2.97456 16 4.04692V11.9531C15.9969 13.0254 15.5695 14.053 14.8113 14.8113C14.053 15.5695 13.0254 15.9969 11.9531 16Z" fill="#4E77BB"/>
<path d="M6.76832 6.25219V7.99999H4.76245V10.2874H6.76832V16H9.23166V10.2874H11.0733L11.4252 7.99999H9.23166V6.52199C9.21969 6.34843 9.24647 6.17439 9.31007 6.01246C9.37367 5.85053 9.47249 5.70478 9.59937 5.58576C9.72625 5.46674 9.87802 5.37743 10.0437 5.3243C10.2093 5.27117 10.3847 5.25556 10.5572 5.27858H11.5542V3.3431C10.969 3.24246 10.3768 3.18755 9.78298 3.17888C9.37315 3.14379 8.96063 3.19969 8.57492 3.3426C8.18921 3.4855 7.83984 3.71186 7.55181 4.00551C7.26377 4.29915 7.04417 4.65281 6.90873 5.0412C6.77329 5.42959 6.72534 5.84311 6.76832 6.25219Z" fill="white"/>
</svg>
