<svg width="16" height="16" viewBox="0 0 16 16" fill="none" xmlns="http://www.w3.org/2000/svg">
<path d="M4.05651 0H11.8959C12.9718 0 14.0036 0.427381 14.7643 1.18812C15.525 1.94887 15.9524 2.98065 15.9524 4.05651V11.8959C15.9524 12.9686 15.5263 13.9974 14.7678 14.7559C14.0093 15.5144 12.9805 15.9405 11.9078 15.9405H4.04461C2.97191 15.9405 1.94315 15.5144 1.18464 14.7559C0.426127 13.9974 0 12.9686 0 11.8959L0 4.05651C0 2.98065 0.427381 1.94887 1.18812 1.18812C1.94887 0.427381 2.98065 0 4.05651 0Z" fill="#FCBB46"/>
<path d="M12.3598 3.94946H3.64014L8.00594 8.92195L12.3598 3.94946Z" fill="white"/>
<path d="M8.00597 10.5517L2.73608 4.55615V12.0506H13.264V4.55615L8.00597 10.5517Z" fill="white"/>
</svg>
