<svg width="16" height="16" viewBox="0 0 16 16" fill="none" xmlns="http://www.w3.org/2000/svg">
<g clip-path="url(#clip0)">
<path fill-rule="evenodd" clip-rule="evenodd" d="M13.7017 0.514424H2.32854C2.08623 0.540432 1.8637 0.66303 1.70921 0.855639C1.55472 1.04825 1.48071 1.29534 1.50323 1.54336V11.0816C1.48071 11.3296 1.55472 11.5767 1.70921 11.7694C1.8637 11.962 2.08623 12.0846 2.32854 12.1106H8.87059L11.6686 15.434C11.7091 15.4795 11.759 15.5151 11.8148 15.5383C11.8705 15.5614 11.9306 15.5715 11.9907 15.5678C12.0504 15.5803 12.112 15.5803 12.1718 15.5678C12.2481 15.5122 12.3094 15.4378 12.3499 15.3514C12.3904 15.265 12.4088 15.1695 12.4033 15.0739V12.0282H13.7017C13.82 12.0142 13.9345 11.9764 14.0385 11.9171C14.1426 11.8578 14.2342 11.778 14.308 11.6824C14.3819 11.5869 14.4366 11.4773 14.469 11.3601C14.5013 11.2429 14.5108 11.1203 14.4968 10.9993V1.50221C14.5108 1.38125 14.5013 1.25864 14.469 1.14142C14.4366 1.0242 14.3819 0.914665 14.308 0.819085C14.2342 0.723506 14.1426 0.643761 14.0385 0.58442C13.9345 0.525079 13.82 0.487306 13.7017 0.473267V0.514424Z" fill="white" stroke="#00A79D" stroke-miterlimit="10"/>
<g style="mix-blend-mode:multiply" opacity="0.15">
<g style="mix-blend-mode:multiply" opacity="0.15">
<path d="M11.7892 1.67712H4.31116C3.92762 1.67712 3.6167 1.99499 3.6167 2.38709V10.0321C3.6167 10.4242 3.92762 10.7421 4.31116 10.7421H11.7892C12.1728 10.7421 12.4837 10.4242 12.4837 10.0321V2.38709C12.4837 1.99499 12.1728 1.67712 11.7892 1.67712Z" fill="#231F20"/>
</g>
</g>
<path d="M11.7089 1.6051H4.23084C3.8473 1.6051 3.53638 1.92297 3.53638 2.31507V9.96009C3.53638 10.3522 3.8473 10.6701 4.23084 10.6701H11.7089C12.0925 10.6701 12.4034 10.3522 12.4034 9.96009V2.31507C12.4034 1.92297 12.0925 1.6051 11.7089 1.6051Z" fill="url(#paint0_linear)"/>
<path d="M4.24091 1.59485H11.7089C11.8159 1.59445 11.9215 1.61931 12.0175 1.6675C12.1135 1.71569 12.1974 1.7859 12.2625 1.87267C12.1311 1.74784 11.9587 1.67806 11.7794 1.67717H4.31136C4.12718 1.67717 3.95054 1.75197 3.8203 1.88511C3.69006 2.01826 3.61689 2.19884 3.61689 2.38714V10.0219C3.61544 10.1811 3.66492 10.3365 3.7578 10.4643C3.61924 10.326 3.53967 10.1375 3.53638 9.93955V2.30482C3.53902 2.11559 3.61441 1.93502 3.74625 1.80216C3.87809 1.6693 4.05578 1.59483 4.24091 1.59485Z" fill="white"/>
<path d="M10.652 2.89124H5.30768C5.02975 2.89124 4.80444 3.12157 4.80444 3.4057V8.86937C4.80444 9.1535 5.02975 9.38384 5.30768 9.38384H10.652C10.93 9.38384 11.1553 9.1535 11.1553 8.86937V3.4057C11.1553 3.12157 10.93 2.89124 10.652 2.89124Z" fill="#1C75BC"/>
<g style="mix-blend-mode:multiply" opacity="0.2">
<g style="mix-blend-mode:multiply" opacity="0.2">
<path d="M10.652 2.89124H5.30768C5.02975 2.89124 4.80444 3.12157 4.80444 3.4057V8.86937C4.80444 9.1535 5.02975 9.38384 5.30768 9.38384H10.652C10.93 9.38384 11.1553 9.1535 11.1553 8.86937V3.4057C11.1553 3.12157 10.93 2.89124 10.652 2.89124Z" fill="#231F20"/>
</g>
<g style="mix-blend-mode:multiply" opacity="0.2">
<path d="M10.652 2.953H5.35792C5.08555 2.953 4.86475 3.17873 4.86475 3.45718V8.8694C4.86475 9.14785 5.08555 9.37358 5.35792 9.37358H10.652C10.9243 9.37358 11.1451 9.14785 11.1451 8.8694V3.45718C11.1451 3.17873 10.9243 2.953 10.652 2.953Z" fill="#3E3E3F"/>
</g>
<g style="mix-blend-mode:multiply" opacity="0.2">
<path d="M10.6521 3.02502H5.42847C5.1561 3.02502 4.9353 3.25075 4.9353 3.5292V8.8694C4.9353 9.14785 5.1561 9.37358 5.42847 9.37358H10.6521C10.9244 9.37358 11.1452 9.14785 11.1452 8.8694V3.5292C11.1452 3.25075 10.9244 3.02502 10.6521 3.02502Z" fill="#545557"/>
</g>
<g style="mix-blend-mode:multiply" opacity="0.2">
<path d="M10.662 3.08679H5.47871C5.2119 3.08679 4.99561 3.30791 4.99561 3.58068V8.87972C4.99561 9.15249 5.2119 9.37361 5.47871 9.37361H10.662C10.9288 9.37361 11.1451 9.15249 11.1451 8.87972V3.58068C11.1451 3.30791 10.9288 3.08679 10.662 3.08679Z" fill="#68696B"/>
</g>
<g style="mix-blend-mode:multiply" opacity="0.2">
<path d="M10.6621 3.15881H5.54927C5.28246 3.15881 5.06616 3.37994 5.06616 3.6527V8.87971C5.06616 9.15248 5.28246 9.3736 5.54927 9.3736H10.6621C10.9289 9.3736 11.1452 9.15248 11.1452 8.87971V3.6527C11.1452 3.37994 10.9289 3.15881 10.6621 3.15881Z" fill="#797B7E"/>
</g>
<g style="mix-blend-mode:multiply" opacity="0.2">
<path d="M10.6721 3.23083H5.59951C5.33825 3.23083 5.12646 3.44735 5.12646 3.71444V8.90029C5.12646 9.16737 5.33825 9.38389 5.59951 9.38389H10.6721C10.9334 9.38389 11.1452 9.16737 11.1452 8.90029V3.71444C11.1452 3.44735 10.9334 3.23083 10.6721 3.23083Z" fill="#8B8D8F"/>
</g>
<g style="mix-blend-mode:multiply" opacity="0.2">
<path d="M10.6722 3.29248H5.67006C5.40881 3.29248 5.19702 3.509 5.19702 3.77608V8.88991C5.19702 9.15699 5.40881 9.37351 5.67006 9.37351H10.6722C10.9335 9.37351 11.1453 9.15699 11.1453 8.88991V3.77608C11.1453 3.509 10.9335 3.29248 10.6722 3.29248Z" fill="#9C9EA1"/>
</g>
<g style="mix-blend-mode:multiply" opacity="0.2">
<path d="M10.6922 3.3645H5.73031C5.47462 3.3645 5.26733 3.57641 5.26733 3.83781V8.91048C5.26733 9.17189 5.47462 9.3838 5.73031 9.3838H10.6922C10.9479 9.3838 11.1552 9.17189 11.1552 8.91048V3.83781C11.1552 3.57641 10.9479 3.3645 10.6922 3.3645Z" fill="#AFB1B3"/>
</g>
<g style="mix-blend-mode:multiply" opacity="0.2">
<path d="M10.6823 3.42627H5.79086C5.53516 3.42627 5.32788 3.63818 5.32788 3.89958V8.90022C5.32788 9.16163 5.53516 9.37354 5.79086 9.37354H10.6823C10.938 9.37354 11.1453 9.16163 11.1453 8.90022V3.89958C11.1453 3.63818 10.938 3.42627 10.6823 3.42627Z" fill="#C2C4C6"/>
</g>
<g style="mix-blend-mode:multiply" opacity="0.2">
<path d="M10.6922 3.49829H5.85111C5.60097 3.49829 5.39819 3.70559 5.39819 3.96131V8.91051C5.39819 9.16623 5.60097 9.37353 5.85111 9.37353H10.6922C10.9424 9.37353 11.1451 9.16623 11.1451 8.91051V3.96131C11.1451 3.70559 10.9424 3.49829 10.6922 3.49829Z" fill="#D5D6D8"/>
</g>
<g style="mix-blend-mode:multiply" opacity="0.2">
<path d="M10.6924 3.56006H5.91165C5.66152 3.56006 5.45874 3.76736 5.45874 4.02308V8.91054C5.45874 9.16626 5.66152 9.37356 5.91165 9.37356H10.6924C10.9425 9.37356 11.1453 9.16626 11.1453 8.91054V4.02308C11.1453 3.76736 10.9425 3.56006 10.6924 3.56006Z" fill="#E8E9EA"/>
</g>
<g style="mix-blend-mode:multiply" opacity="0.2">
<path d="M10.7023 3.63208H5.9719C5.72732 3.63208 5.52905 3.83478 5.52905 4.08481V8.92083C5.52905 9.17086 5.72732 9.37356 5.9719 9.37356H10.7023C10.9469 9.37356 11.1452 9.17086 11.1452 8.92083V4.08481C11.1452 3.83478 10.9469 3.63208 10.7023 3.63208Z" fill="white"/>
</g>
</g>
<path d="M8.13595 4.87718C8.20036 4.8772 8.26405 4.86348 8.32298 4.83691C8.3819 4.81033 8.43475 4.77148 8.47815 4.72284C8.52314 4.67913 8.55887 4.62644 8.58311 4.56803C8.60734 4.50962 8.61958 4.44674 8.61906 4.38329C8.62037 4.3182 8.60853 4.25354 8.58428 4.19335C8.56004 4.13316 8.52391 4.07872 8.47815 4.03345C8.41059 3.96413 8.3244 3.9169 8.23053 3.89774C8.13666 3.87858 8.03934 3.88837 7.95092 3.92585C7.86249 3.96333 7.78695 4.02682 7.73389 4.10826C7.68082 4.18971 7.65261 4.28543 7.65285 4.38329C7.65232 4.44674 7.66456 4.50962 7.6888 4.56803C7.71304 4.62644 7.74876 4.67913 7.79375 4.72284C7.83716 4.77148 7.89001 4.81033 7.94893 4.83691C8.00785 4.86348 8.07155 4.8772 8.13595 4.87718Z" fill="white"/>
<path d="M9.16259 7.20253H8.84052C8.84052 7.20253 8.68955 7.20253 8.68955 7.05848C8.68955 6.91443 8.68955 6.70864 8.68955 6.65719V6.19417V6.10157C8.68955 5.99867 8.68955 5.91636 8.68955 5.85462V5.14465C8.30643 5.3356 7.90034 5.47399 7.48178 5.55623L7.41133 5.89578H7.60256C7.67897 5.9113 7.75763 5.9113 7.83405 5.89578V6.56459C7.83405 6.72922 7.83405 6.9453 7.83405 7.15108C7.81746 7.17771 7.79219 7.19747 7.76272 7.20689C7.73325 7.2163 7.70148 7.21476 7.67301 7.20253H7.33081V7.92279H9.16259V7.20253Z" fill="white"/>
</g>
<defs>
<linearGradient id="paint0_linear" x1="12.4034" y1="6.13243" x2="3.53638" y2="6.13243" gradientUnits="userSpaceOnUse">
<stop stop-color="white"/>
<stop offset="0.39" stop-color="#FAFAFB"/>
<stop offset="0.85" stop-color="#ECEDEE"/>
<stop offset="1" stop-color="#E6E7E8"/>
</linearGradient>
<clipPath id="clip0">
<rect width="16" height="16" fill="white"/>
</clipPath>
</defs>
</svg>
