<svg width="14" height="14" viewBox="0 0 14 14" fill="none" xmlns="http://www.w3.org/2000/svg">
<path fill-rule="evenodd" clip-rule="evenodd" d="M1.66634 3.66671H2.99967V0.333374H10.9997V3.66671H12.333C13.0694 3.66671 13.6663 4.26366 13.6663 5.00004V10.3334C13.6663 11.0698 13.0694 11.6667 12.333 11.6667H10.9997V13.6667H2.99967V11.6667H1.66634C0.929961 11.6667 0.333008 11.0698 0.333008 10.3334V5.00004C0.333008 4.26366 0.929961 3.66671 1.66634 3.66671ZM9.66634 3.66671H4.33301V1.66671H9.66634V3.66671ZM12.333 5.00004V10.3334H10.9997V9.00004H2.99967V10.3334H1.66634V5.00004H12.333ZM9.66634 10.3334H4.33301V12.3334H9.66634V10.3334ZM11.6663 6.33337C11.6663 5.96518 11.3679 5.66671 10.9997 5.66671C10.6315 5.66671 10.333 5.96518 10.333 6.33337C10.333 6.70156 10.6315 7.00004 10.9997 7.00004C11.3679 7.00004 11.6663 6.70156 11.6663 6.33337Z" fill="white"/>
</svg>
