<svg width="28" height="28" viewBox="0 0 28 28" fill="none" xmlns="http://www.w3.org/2000/svg">
<path d="M14 0C6.26875 0 0 6.26875 0 14C0 21.7313 6.26875 28 14 28C21.7313 28 28 21.7313 28 14C28 6.26875 21.7313 0 14 0ZM20.0469 9.42813L13.4656 18.5531C13.3736 18.6815 13.2524 18.7861 13.1119 18.8583C12.9714 18.9305 12.8157 18.9681 12.6578 18.9681C12.4999 18.9681 12.3442 18.9305 12.2037 18.8583C12.0632 18.7861 11.942 18.6815 11.85 18.5531L7.95312 13.1531C7.83437 12.9875 7.95312 12.7563 8.15625 12.7563H9.62187C9.94063 12.7563 10.2437 12.9094 10.4312 13.1719L12.6562 16.2594L17.5688 9.44687C17.7563 9.1875 18.0562 9.03125 18.3781 9.03125H19.8438C20.0469 9.03125 20.1656 9.2625 20.0469 9.42813Z" fill="#80DF7E"/>
</svg>
